<svg width="1075" height="841" viewBox="0 0 1075 841" fill="none" xmlns="http://www.w3.org/2000/svg">
<rect width="1075" height="841"/>
<g id="scene">
<g id="woman">
<path id="Vector" opacity="0.1" d="M460.93 830.58C534.461 830.58 594.07 811.919 594.07 788.9C594.07 765.881 534.461 747.22 460.93 747.22C387.399 747.22 327.79 765.881 327.79 788.9C327.79 811.919 387.399 830.58 460.93 830.58Z" fill="#FFDBF1"/>
<path id="Vector_2" d="M733.95 360.24L738.78 616.96L749.05 618.17L745.18 359.22L733.95 360.24Z" fill="#F5C5CC"/>
<path id="Vector_3" d="M709.12 355.41L713.95 612.13L724.22 613.34L720.35 354.39L709.12 355.41Z" fill="#F5C5CC"/>
<path id="Vector_4" d="M715.19 341.99L715.69 621.99L726.19 620.99L722.19 336.49L715.19 341.99Z" fill="#CC929B"/>
<path id="Vector_5" d="M425.56 295.24L429.99 527.95L440.26 529.03L436.8 294.3L425.56 295.24Z" fill="#F5C5CC"/>
<path id="Vector_6" d="M431.49 290.89L436.57 533.09L440.26 529.03L436.8 294.3L431.49 290.89Z" fill="#CC929B"/>
<path id="Vector_7" d="M447.41 301.13L451.84 533.83L462.11 534.91L458.65 300.19L447.41 301.13Z" fill="#F5C5CC"/>
<path id="Vector_8" d="M453.34 296.77L458.43 538.97L462.11 534.91L458.65 300.19L453.34 296.77Z" fill="#CC929B"/>
<path id="Vector_9" d="M468.77 307.51L473.2 540.22L483.47 541.3L480.01 306.58L468.77 307.51Z" fill="#F5C5CC"/>
<path id="Vector_10" d="M474.7 303.17L479.79 545.36L483.47 541.3L480.01 306.58L474.7 303.17Z" fill="#CC929B"/>
<path id="Vector_11" d="M489.55 308.81L494.11 549.69L504.38 550.81L500.78 307.85L489.55 308.81Z" fill="#F5C5CC"/>
<path id="Vector_12" d="M495.47 304.31L500.7 555.01L504.38 550.81L500.78 307.85L495.47 304.31Z" fill="#CC929B"/>
<path id="Vector_13" d="M512.08 310.69L516.65 551.56L526.92 552.68L523.32 309.72L512.08 310.69Z" fill="#F5C5CC"/>
<path id="Vector_14" d="M518.01 306.19L523.24 556.88L526.92 552.68L523.32 309.72L518.01 306.19Z" fill="#CC929B"/>
<path id="Vector_15" d="M534.22 318.56L538.78 559.44L549.05 560.56L545.46 317.6L534.22 318.56Z" fill="#F5C5CC"/>
<path id="Vector_16" d="M540.14 314.06L545.37 564.76L549.05 560.56L545.46 317.6L540.14 314.06Z" fill="#CC929B"/>
<path id="Vector_17" d="M559.56 323.76L564.24 571.36L574.51 572.51L570.8 322.77L559.56 323.76Z" fill="#F5C5CC"/>
<path id="Vector_18" d="M565.48 319.14L570.83 576.83L574.51 572.51L570.8 322.77L565.48 319.14Z" fill="#CC929B"/>
<path id="Vector_19" d="M581.61 326.39L586.28 573.99L596.56 575.14L592.84 325.4L581.61 326.39Z" fill="#F5C5CC"/>
<path id="Vector_20" d="M587.53 321.76L592.88 579.46L596.56 575.14L592.84 325.4L587.53 321.76Z" fill="#CC929B"/>
<path id="Vector_21" d="M604.97 332.99L609.65 580.59L619.92 581.75L616.21 332.01L604.97 332.99Z" fill="#F5C5CC"/>
<path id="Vector_22" d="M610.9 328.37L616.24 586.07L619.92 581.75L616.21 332.01L610.9 328.37Z" fill="#CC929B"/>
<path id="Vector_23" d="M405.55 294.83L405.05 280.09L410.25 277.25L783.19 353.74L783.88 372.45L405.55 294.83Z" fill="#F5C5CC"/>
<path id="Vector_24" d="M410.25 277.25L784.56 353.68L784.18 360.69L405.82 279.66" fill="#CC929B"/>
<path id="Vector_25" d="M425.69 661.67L415.19 665.49H405.19L404.69 270.95L410.19 263.31L415.5 261.75L422.19 260.74L425.69 661.67Z" fill="#F5C5CC"/>
<path id="Vector_26" d="M425.69 661.67L415.19 665.49L414.54 271.73L415.5 261.75L422.19 260.74L425.69 661.67Z" fill="#CC929B"/>
<path id="Vector_27" d="M630.35 340.32L635.03 587.91L645.3 589.07L641.59 339.33L630.35 340.32Z" fill="#F5C5CC"/>
<path id="Vector_28" d="M636.27 335.69L641.62 593.39L645.3 589.07L641.59 339.33L636.27 335.69Z" fill="#CC929B"/>
<path id="Vector_29" d="M655.92 344.23L660.69 597.12L670.96 598.3L667.15 343.23L655.92 344.23Z" fill="#F5C5CC"/>
<path id="Vector_30" d="M682.25 348.86L687.08 605.58L697.35 606.79L693.49 347.84L682.25 348.86Z" fill="#F5C5CC"/>
<path id="Vector_31" d="M688.17 344.07L693.68 611.27L697.35 606.79L693.49 347.84L688.17 344.07Z" fill="#CC929B"/>
<path id="Vector_32" d="M280.19 585.99L269.69 586.99L269.2 310.8L269.19 306.99L276.19 301.49L276.3 309.15L280.19 585.99Z" fill="#F5C5CC"/>
<path id="Vector_33" d="M317.19 570.49L306.69 571.49L306.2 299.81L306.19 291.49L313.19 285.99L313.35 297.15L317.19 570.49Z" fill="#F5C5CC"/>
<path id="Vector_34" d="M378.19 545.49L367.69 546.49L367.21 278.24L367.19 266.49L374.19 260.99L374.41 276.57L378.19 545.49Z" fill="#F5C5CC"/>
<path id="Vector_35" d="M404.69 535.49L394.19 536.49L393.72 274.79L393.69 256.49L400.69 250.99L401.05 276.41L404.69 535.49Z" fill="#F5C5CC"/>
<path id="Vector_36" d="M298.69 582.99L288.19 583.99L287.69 305.99V303.99L294.69 298.49L294.76 303.76L298.69 582.99Z" fill="#F5C5CC"/>
<path id="Vector_37" d="M352.69 557.99L342.19 558.99L341.7 286.23L341.69 278.99L348.69 273.49L348.83 283.75L352.69 557.99Z" fill="#F5C5CC"/>
<path id="Vector_38" d="M335.19 562.99L324.69 563.99L324.21 292.88L324.19 283.99L331.19 278.49L331.35 290.07L335.19 562.99Z" fill="#F5C5CC"/>
<path id="Vector_39" d="M268.99 539.85L266.49 545.1C266.49 545.1 259.99 554.85 260.74 569.85C261.49 584.85 250.27 624.6 250.27 624.6C250.27 624.6 260.52 629.35 268.27 628.85C276.02 628.35 292.77 636.6 292.77 636.6L327.49 647.37L397.74 663.87C397.74 663.87 438.99 686.87 450.24 686.87C461.49 686.87 506.24 702.12 506.24 702.12C506.24 702.12 566.74 715.37 571.49 720.37C576.24 725.37 596.27 732.1 598.27 732.37C600.27 732.64 630.77 735.62 630.77 735.62C630.77 735.62 666.27 743.87 671.27 735.12C674.184 730.2 676.136 724.77 677.02 719.12C677.02 719.12 692.77 722.62 697.02 717.37C701.27 712.12 701.52 700.87 706.52 701.37C711.52 701.87 732.02 708.12 734.27 705.87C736.52 703.62 748.52 677.12 757.02 681.12C765.52 685.12 780.27 691.37 780.27 691.37L771.77 604.87L768.02 581.12C768.02 581.12 631.77 636.62 627.02 636.62C622.27 636.62 268.99 539.85 268.99 539.85Z" fill="#FFDBF1"/>
<path id="Vector_40" d="M767.27 464.1L766.52 586.1L624.99 640.37L266.49 545.12C266.49 545.12 242.24 510.87 264.74 478.87C264.74 478.87 235.74 438.87 271.74 412.87L272.63 412.66L408.74 379.87L469.27 390.93L736.72 439.85C736.72 439.85 762.99 449.6 767.27 464.1Z" fill="#FFDBF1"/>
<path id="Vector_41" opacity="0.1" d="M464.49 402.6C457.74 406.1 408.74 418.85 398.99 426.6C389.24 434.35 321.74 440.37 321.74 440.37L314.24 441.87C314.24 441.87 314.74 436.87 284.99 422.37C280.237 420.032 276.027 416.724 272.63 412.66L408.74 379.87L469.27 390.93C469.35 395.72 468.53 400.5 464.49 402.6Z" fill="black"/>
<path id="Vector_42" d="M258.74 354.37C258.74 354.37 256.24 402.87 285.99 417.37C315.74 431.87 315.27 436.85 315.27 436.85L322.77 435.35C322.77 435.35 296.77 406.35 298.52 401.35C300.27 396.35 275.27 371.1 271.74 370.1C268.21 369.1 258.74 354.37 258.74 354.37Z" fill="#FFDBF1"/>
<path id="Vector_43" opacity="0.1" d="M259.27 355.1C259.27 355.1 256.77 403.6 286.52 418.1C316.27 432.6 315.77 437.6 315.77 437.6L323.27 436.1C323.27 436.1 297.27 407.1 299.02 402.1C300.77 397.1 275.74 371.85 272.27 370.85C268.8 369.85 259.27 355.1 259.27 355.1Z" fill="black"/>
<path id="Vector_44" opacity="0.1" d="M266.27 375.6C266.27 375.6 290.27 411.85 294.52 413.1C298.77 414.35 271.99 376.1 266.27 375.6Z" fill="black"/>
<path id="Vector_45" d="M255.27 347.6C255.27 347.6 270.77 335.1 272.77 332.6C274.77 330.1 296.77 329.1 297.52 329.1C298.27 329.1 315.02 318.85 333.77 315.6C352.52 312.35 360.02 310.85 360.02 310.85C360.02 310.85 387.52 299.35 389.02 296.85C390.52 294.35 403.27 291.6 419.02 303.85C434.77 316.1 469.52 371.1 469.77 377.1C470.02 383.1 472.27 394.1 465.52 397.6C458.77 401.1 409.77 413.85 400.02 421.6C390.27 429.35 322.74 435.37 322.74 435.37L297.27 407.6L283.77 385.85L261.27 362.1L255.27 347.6Z" fill="#FFDBF1"/>
<path id="Vector_46" opacity="0.1" d="M297.07 563.52C297.07 563.52 287.74 565.52 293.07 570.85C298.4 576.18 297.07 563.52 297.07 563.52Z" fill="black"/>
<path id="Vector_47" opacity="0.1" d="M329.74 574.19C329.74 574.19 319.74 586.19 321.74 589.52C323.74 592.85 329.74 574.19 329.74 574.19Z" fill="black"/>
<path id="Vector_48" opacity="0.1" d="M388.41 589.52C388.41 589.52 378.41 601.52 380.41 604.85C382.41 608.18 388.41 589.52 388.41 589.52Z" fill="black"/>
<path id="Vector_49" opacity="0.1" d="M459.74 609.52C459.74 609.52 449.74 621.52 451.74 624.85C453.74 628.18 459.74 609.52 459.74 609.52Z" fill="black"/>
<path id="Vector_50" opacity="0.1" d="M555.74 633.52C555.74 633.52 545.74 645.52 547.74 648.85C549.74 652.18 555.74 633.52 555.74 633.52Z" fill="black"/>
<path id="Vector_51" opacity="0.1" d="M358.41 577.52C358.41 577.52 348.41 589.52 350.41 592.85C352.41 596.18 358.41 577.52 358.41 577.52Z" fill="black"/>
<path id="Vector_52" opacity="0.1" d="M497.74 619.52C497.74 619.52 487.74 631.52 489.74 634.85C491.74 638.18 497.74 619.52 497.74 619.52Z" fill="black"/>
<path id="Vector_53" opacity="0.1" d="M527.07 628.85C527.07 628.85 517.07 640.85 519.07 644.19C521.07 647.53 527.07 628.85 527.07 628.85Z" fill="black"/>
<path id="Vector_54" opacity="0.1" d="M414.41 597.52C414.41 597.52 404.41 609.52 406.41 612.85C408.41 616.18 414.41 597.52 414.41 597.52Z" fill="black"/>
<path id="Vector_55" opacity="0.1" d="M666.41 670.19L676.99 719.1C676.99 719.1 677.07 684.85 666.41 670.19Z" fill="black"/>
<path id="Vector_56" opacity="0.1" d="M699.07 677.52L706.49 701.37C706.49 701.37 705.74 692.19 699.07 677.52Z" fill="black"/>
<path id="Vector_57" opacity="0.1" d="M734.27 705.85C734.27 705.85 718.44 648.19 715.1 644.19C711.76 640.19 724.74 702.19 734.27 705.85Z" fill="black"/>
<path id="Vector_58" opacity="0.1" d="M753.07 678.85C753.07 678.85 734.41 646.19 741.74 640.19C749.07 634.19 753.07 678.85 753.07 678.85Z" fill="black"/>
<path id="Vector_59" opacity="0.1" d="M264.74 478.85L627.07 560.19L766.41 519.52L625.74 556.19C625.74 556.19 275.74 475.52 264.74 478.85Z" fill="black"/>
<path id="Vector_60" d="M275.69 390.49L276.19 623.24L286.44 624.49L286.94 389.74L275.69 390.49Z" fill="#F5C5CC"/>
<path id="Vector_61" d="M281.69 386.24L282.69 628.49L286.44 624.49L286.94 389.74L281.69 386.24Z" fill="#CC929B"/>
<path id="Vector_62" d="M297.44 396.74L297.94 629.49L308.19 630.74L308.69 395.99L297.44 396.74Z" fill="#F5C5CC"/>
<path id="Vector_63" d="M303.44 392.49L304.44 634.74L308.19 630.74L308.69 395.99L303.44 392.49Z" fill="#CC929B"/>
<path id="Vector_64" d="M318.69 403.49L319.19 636.24L329.44 637.49L329.94 402.74L318.69 403.49Z" fill="#F5C5CC"/>
<path id="Vector_65" d="M324.69 399.24L325.69 641.49L329.44 637.49L329.94 402.74L324.69 399.24Z" fill="#CC929B"/>
<path id="Vector_66" d="M339.44 405.14L339.94 646.06L350.19 647.35L350.69 404.36L339.44 405.14Z" fill="#F5C5CC"/>
<path id="Vector_67" d="M345.44 400.74L346.44 651.49L350.19 647.35L350.69 404.36L345.44 400.74Z" fill="#CC929B"/>
<path id="Vector_68" d="M361.94 407.39L362.44 648.31L372.69 649.6L373.19 406.61L361.94 407.39Z" fill="#F5C5CC"/>
<path id="Vector_69" d="M367.94 402.99L368.94 653.74L372.69 649.6L373.19 406.61L367.94 402.99Z" fill="#CC929B"/>
<path id="Vector_70" d="M383.94 415.64L384.44 656.56L394.69 657.85L395.19 414.86L383.94 415.64Z" fill="#F5C5CC"/>
<path id="Vector_71" d="M389.94 411.24L390.94 661.99L394.69 657.85L395.19 414.86L389.94 411.24Z" fill="#CC929B"/>
<path id="Vector_72" d="M415.19 416.74L416.19 674.49L419.94 670.23L420.44 420.46L415.19 416.74Z" fill="#CC929B"/>
<path id="Vector_73" d="M431.19 424.26L431.69 671.9L441.94 673.23L442.44 423.46L431.19 424.26Z" fill="#F5C5CC"/>
<path id="Vector_74" d="M437.19 419.74L438.19 677.49L441.94 673.23L442.44 423.46L437.19 419.74Z" fill="#CC929B"/>
<path id="Vector_75" d="M454.44 431.26L454.94 678.9L465.19 680.23L465.69 430.46L454.44 431.26Z" fill="#F5C5CC"/>
<path id="Vector_76" d="M460.44 426.74L461.44 684.49L465.19 680.23L465.69 430.46L460.44 426.74Z" fill="#CC929B"/>
<path id="Vector_77" d="M479.69 439.01L480.19 686.65L490.44 687.98L490.94 438.21L479.69 439.01Z" fill="#F5C5CC"/>
<path id="Vector_78" d="M485.69 434.49L486.69 692.24L490.44 687.98L490.94 438.21L485.69 434.49Z" fill="#CC929B"/>
<path id="Vector_79" d="M505.19 443.36L505.69 696.28L515.94 697.64L516.44 442.54L505.19 443.36Z" fill="#F5C5CC"/>
<path id="Vector_80" d="M511.19 438.74L512.19 701.99L515.94 697.64L516.44 442.54L511.19 438.74Z" fill="#CC929B"/>
<path id="Vector_81" d="M531.44 448.43L531.94 705.2L542.19 706.58L542.69 447.6L531.44 448.43Z" fill="#CC929B"/>
<path id="Vector_82" d="M558.19 455.43L558.69 712.2L568.94 713.58L569.44 454.6L558.19 455.43Z" fill="#F5C5CC"/>
<path id="Vector_83" d="M564.19 450.74L565.19 717.99L568.94 713.58L569.44 454.6L564.19 450.74Z" fill="#CC929B"/>
<path id="Vector_84" d="M582.94 460.68L583.44 717.45L593.69 718.83L594.19 459.85L582.94 460.68Z" fill="#CC929B"/>
<path id="Vector_85" d="M262.19 668.49L251.69 672.49H241.69L241.19 305.49L246.69 297.49L252 295.86L259.69 293.49L262.19 668.49Z" fill="#F5C5CC"/>
<path id="Vector_86" d="M262.19 668.49L251.69 672.49L251.04 306.3L252 295.86L259.69 293.49L262.19 668.49Z" fill="#CC929B"/>
<path id="Vector_87" d="M252.69 683.99C259.317 683.99 264.69 678.617 264.69 671.99C264.69 665.363 259.317 659.99 252.69 659.99C246.063 659.99 240.69 665.363 240.69 671.99C240.69 678.617 246.063 683.99 252.69 683.99Z" fill="#40414D"/>
<path id="Vector_88" d="M799.19 724.67L788.69 728.49H778.69L778.19 324.95L783.69 326.31L789 324.75L796.69 322.49L799.19 724.67Z" fill="#F5C5CC"/>
<path id="Vector_89" d="M799.19 724.67L788.69 728.49L788.04 334.73L789 324.75L796.69 322.49L799.19 724.67Z" fill="#CC929B"/>
<path id="Vector_90" d="M653.69 648.99L643.19 649.99L642.71 380.4L642.69 369.99L649.69 364.49L649.89 378.86L653.69 648.99Z" fill="#F5C5CC"/>
<path id="Vector_91" d="M690.69 633.49L680.19 634.49L679.72 369.88L679.69 354.49L686.69 348.99L686.95 367.25L690.69 633.49Z" fill="#F5C5CC"/>
<path id="Vector_92" d="M751.69 608.49L741.19 609.49L740.72 345.5L740.69 329.49L747.69 323.99L747.95 342.5L751.69 608.49Z" fill="#F5C5CC"/>
<path id="Vector_93" d="M767.19 319.49L767.69 599.49L778.19 598.49L774.19 313.99L767.19 319.49Z" fill="#F5C5CC"/>
<path id="Vector_94" d="M672.19 645.99L661.69 646.99L661.21 375.87L661.19 366.99L668.19 361.49L668.36 373.7L672.19 645.99Z" fill="#F5C5CC"/>
<path id="Vector_95" d="M708.69 625.99L698.19 626.99L697.72 363.08L697.69 346.99L704.69 341.49L704.95 360.17L708.69 625.99Z" fill="#F5C5CC"/>
<path id="Vector_96" d="M729.02 619.32L718.52 620.32L718.05 356.41V354.84L718.02 340.32L725.02 334.82L725.26 351.88L725.28 353.5L729.02 619.32Z" fill="#F5C5CC"/>
<path id="Vector_97" d="M632.69 647.16L777.69 585.49L787.69 587.82L788.02 610.82L635.36 669.82L632.69 647.16Z" fill="#F5C5CC"/>
<path id="Vector_98" d="M777.69 585.49L632.69 647.16L787.15 587.69" fill="#CC929B"/>
<path id="Vector_99" d="M257.02 614.49L622.69 725.49L622.02 743.49L255.69 630.49L257.02 614.49Z" fill="#F5C5CC"/>
<path id="Vector_100" d="M638.69 788.49L628.19 792.49H618.19L617.69 381.49V379.49L618.47 378.35L623.19 371.49L628.5 369.86L636.19 367.49L636.27 381.49L638.69 788.49Z" fill="#F5C5CC"/>
<path id="Vector_101" d="M638.69 788.49L628.19 792.49L627.54 380.3L628.5 369.86L636.19 367.49L638.69 788.49Z" fill="#CC929B"/>
<path id="Vector_102" opacity="0.1" d="M636.19 367.49L636.27 381.49C633.376 381.913 630.462 382.187 627.54 382.31C620.34 382.59 617.69 381.5 617.69 381.5C617.69 381.36 617.97 380.24 618.47 378.37L623.19 371.51L628.5 369.88L636.19 367.49Z" fill="black"/>
<path id="Vector_103" opacity="0.1" d="M649.69 364.49L649.89 378.86C647.31 379.46 644.917 379.973 642.71 380.4V369.99L649.69 364.49Z" fill="black"/>
<path id="Vector_104" opacity="0.1" d="M668.19 361.49L668.36 373.7C665.87 374.49 663.48 375.21 661.21 375.87V366.99L668.19 361.49Z" fill="black"/>
<path id="Vector_105" opacity="0.1" d="M686.69 348.99L686.95 367.25C684.45 368.177 682.04 369.053 679.72 369.88V354.49L686.69 348.99Z" fill="black"/>
<path id="Vector_106" opacity="0.1" d="M704.69 341.49L704.95 360.17L699.19 362.49L697.72 363.08V346.99L704.69 341.49Z" fill="black"/>
<path id="Vector_107" opacity="0.1" d="M747.95 342.5L740.72 345.5V329.5L747.72 324L747.95 342.5Z" fill="black"/>
<path id="Vector_108" opacity="0.1" d="M725.27 351.88L718.06 354.88V340.36L725.06 334.86L725.27 351.88Z" fill="black"/>
<path id="Vector_109" d="M802.69 331.49C802.69 331.49 784.19 331.49 779.19 329.99C774.19 328.49 763.69 334.49 699.19 360.49C660.19 376.22 638.54 379.87 627.54 380.3C620.34 380.58 617.69 379.49 617.69 379.49C617.69 379.49 630.86 319.07 672.8 307.78C677.476 306.506 682.074 304.96 686.57 303.15L687.38 302.84C690.902 301.476 694.514 300.356 698.19 299.49C711.65 296.4 721.26 290.49 745.59 290.31C760.686 290.057 775.419 294.945 787.37 304.17C795.71 310.73 802.9 319.8 802.69 331.49Z" fill="#CC929B"/>
<path id="Vector_110" d="M689.19 302.49C637.29 324.87 629.37 366.7 627.54 380.3C620.34 380.58 617.69 379.49 617.69 379.49C617.69 379.49 630.86 319.07 672.8 307.78C677.476 306.506 682.074 304.96 686.57 303.15L687.38 302.84C687.98 302.75 688.58 302.63 689.19 302.49Z" fill="#F5C5CC"/>
<path id="Vector_111" opacity="0.1" d="M276.19 301.49L276.3 309.15C273.77 309.78 271.41 310.33 269.2 310.8V306.99L276.19 301.49Z" fill="black"/>
<path id="Vector_112" opacity="0.1" d="M294.69 298.49L294.76 303.76C292.3 304.573 289.943 305.317 287.69 305.99V303.99L294.69 298.49Z" fill="black"/>
<path id="Vector_113" opacity="0.1" d="M313.19 285.99L313.35 297.15C310.89 298.09 308.507 298.977 306.2 299.81V291.49L313.19 285.99Z" fill="black"/>
<path id="Vector_114" opacity="0.1" d="M331.19 278.49L331.35 290.07C329.05 290.957 326.67 291.893 324.21 292.88V283.99L331.19 278.49Z" fill="black"/>
<path id="Vector_115" opacity="0.1" d="M348.69 273.49L348.83 283.75C346.563 284.51 344.187 285.337 341.7 286.23V278.99L348.69 273.49Z" fill="black"/>
<path id="Vector_116" opacity="0.1" d="M374.19 260.99L374.41 276.57C372.2 277.03 369.81 277.57 367.21 278.24V266.49L374.19 260.99Z" fill="black"/>
<path id="Vector_117" opacity="0.1" d="M401.05 276.37C398.696 275.483 396.228 274.938 393.72 274.75V256.45L400.72 250.95L401.05 276.37Z" fill="black"/>
<path id="Vector_118" d="M426.19 276.49C426.19 276.49 407.69 276.49 402.69 274.99C397.69 273.49 387.19 265.49 322.69 291.49C283.69 307.22 262.04 310.87 251.04 311.3C243.84 311.58 241.19 310.49 241.19 310.49C241.19 310.49 251.12 257.99 294.91 249.13C297.354 248.654 299.768 248.036 302.14 247.28C304.83 246.4 309.07 245.14 314.77 243.83C329.47 240.45 353.84 236.74 386.23 238.31C397.456 238.73 408.104 243.398 416.02 251.37C419.332 254.647 421.942 258.565 423.69 262.883C425.439 267.202 426.289 271.832 426.19 276.49Z" fill="#CC929B"/>
<path id="Vector_119" d="M314.77 243.83C262.87 266.21 252.87 297.7 251.04 311.3C243.84 311.58 241.19 310.49 241.19 310.49C241.19 310.49 251.12 257.99 294.91 249.13C297.354 248.654 299.768 248.036 302.14 247.28C304.83 246.37 309.07 245.14 314.77 243.83Z" fill="#F5C5CC"/>
<path id="Vector_120" d="M255.69 389.74L255.44 374.99L260.69 372.24L619.69 452.74L618.69 471.49L255.69 389.74Z" fill="#F5C5CC"/>
<path id="Vector_121" d="M260.69 372.24L619.69 452.74L619.19 459.74L256.22 374.58" fill="#CC929B"/>
<path id="Vector_122" d="M788.69 740.49C795.317 740.49 800.69 735.117 800.69 728.49C800.69 721.863 795.317 716.49 788.69 716.49C782.063 716.49 776.69 721.863 776.69 728.49C776.69 735.117 782.063 740.49 788.69 740.49Z" fill="#40414D"/>
<path id="Vector_123" d="M629.69 808.49C636.317 808.49 641.69 803.117 641.69 796.49C641.69 789.863 636.317 784.49 629.69 784.49C623.063 784.49 617.69 789.863 617.69 796.49C617.69 803.117 623.063 808.49 629.69 808.49Z" fill="#40414D"/>
<path id="Vector_124" d="M269.36 549.82C269.36 549.82 258.69 561.82 255.36 572.49C252.03 583.16 259.36 623.16 259.36 623.16C263.118 616.505 265.817 609.305 267.36 601.82C270.02 589.16 269.36 549.82 269.36 549.82Z" fill="#FFDBF1"/>
<path id="Vector_125" d="M775.69 649.49C775.69 649.49 782.19 682.49 782.69 687.49C783.19 692.49 766.19 684.99 766.19 684.99L775.69 649.49Z" fill="#FFDBF1"/>
<path id="Vector_126" d="M578.69 241.18H578.52C578.479 240.84 578.352 240.516 578.15 240.24C577.693 239.706 577.127 239.276 576.49 238.98L571.8 236.37L575.85 237.84C575.66 237.514 575.449 237.2 575.22 236.9L575.69 237.16L575.37 236.71L574.94 236.56C572.78 234.03 569.18 232.98 565.69 233.03H565.75C566.2 232.97 566.66 232.93 567.11 232.9C566.109 232.837 565.105 232.867 564.11 232.99C564.222 233.038 564.339 233.072 564.46 233.09C564.14 233.09 563.82 233.15 563.46 233.19C562.946 233.329 562.404 233.329 561.89 233.19C561.573 233.029 561.299 232.796 561.089 232.509C560.878 232.222 560.738 231.891 560.68 231.54C560.18 229.54 560.97 227.39 561.2 225.3C561.313 224.319 561.207 223.325 560.89 222.39C560.89 222.19 560.89 221.99 560.89 221.79C560.725 221.348 560.458 220.95 560.11 220.631C559.763 220.311 559.345 220.078 558.89 219.95C558.885 220.027 558.885 220.103 558.89 220.18L558.72 220.11C558.72 221.9 558.72 223.7 558.72 225.49C557.167 224.265 555.79 222.832 554.63 221.23C554.423 220.986 554.282 220.694 554.22 220.38C554.12 219.47 555.28 218.84 555.35 217.92C555.346 217.624 555.246 217.338 555.066 217.104C554.886 216.87 554.635 216.7 554.35 216.62L554.65 216.51C554.294 216.345 553.901 216.276 553.51 216.31C552.654 216.505 551.812 216.759 550.99 217.07L551.25 217.12C551.056 217.184 550.859 217.237 550.66 217.28C548.15 217.8 545.91 215.8 544.1 213.99L543.71 213.6C542.85 206.07 541.46 197.44 541.46 197.44C541.46 197.44 540.21 187.58 538.46 182.28C536.71 176.98 534.19 167.62 534.19 167.62C534.19 167.62 528.43 156.25 527.19 155.75C526.706 155.508 526.236 155.241 525.78 154.95C525.239 153.249 524.903 151.49 524.78 149.71C524.47 139.77 535.09 132.71 536.69 122.86C538 114.86 532.96 106.86 533.69 98.75C534.03 95.2 535.46 91.86 536.23 88.38C536.961 85.004 537.059 81.5218 536.52 78.11C536.265 76.2754 535.711 74.4951 534.88 72.84C536.334 70.9619 537.546 68.9093 538.49 66.73C540.11 62.11 538.36 56.95 535.83 52.73C527.7 39.3 511.23 28.73 495.83 27.36C489.62 26.79 483.39 26.68 477.17 26.58C470.03 26.45 462.65 26.37 456.05 29.13C442.93 34.62 436.72 49.29 428.75 61.13C422.166 70.9222 413.735 79.336 403.93 85.9C399.32 88.98 393.93 92.26 392.85 97.73C392.747 98.2545 392.684 98.786 392.66 99.32C392.525 98.8393 392.415 98.352 392.33 97.86C391.24 103.57 395.27 108.86 397.33 114.31C398.406 117.158 399.027 120.158 399.17 123.2C399.25 121.761 399.25 120.319 399.17 118.88C401.17 129.26 397.5 140.4 395.23 151.01C395.06 151.79 394.93 152.57 394.77 153.35C392.907 153.87 391.133 154.669 389.51 155.72C385.949 158.09 381.916 159.659 377.69 160.32C372.02 161.21 366.92 164.273 363.47 168.86C362.83 169.72 362.21 170.31 361.67 170.37C359.42 170.63 346.88 209.79 346.88 209.79C346.88 209.79 344.27 225.92 344.27 229.7C344.27 233.48 339.76 260.78 339.76 260.78C339.76 260.78 338.25 265.78 338.76 267.85C339.05 269 338.36 272.85 337.71 275.95C337.438 275.837 337.197 275.658 337.01 275.43C336.26 273.92 322.46 275.43 326.73 285.54C327.791 288.26 329.441 290.712 331.56 292.72C329.66 297.48 328.01 301.91 328.23 302.47C328.23 302.47 328.23 306.08 328.55 310.54C325.62 312.54 323.22 314.34 323.22 314.34C323.01 319.86 326.69 320.74 330.15 320.54C331.04 323.74 332.34 326.28 334.25 326.97C340.52 329.25 344.53 328.24 346.54 329.97C348.55 331.7 359.27 335.06 359.27 335.06C363.823 335.746 368.41 336.183 373.01 336.37L374.85 337.29L374.63 336.29C375.22 336.18 374.95 335.48 374.21 334.29C373.88 332.76 373.46 330.76 372.99 328.48L375.74 327.48L376.49 328.59C375.49 333.83 374.85 337.32 374.85 337.32C374.85 337.32 369.85 355.26 372.09 358.04C374.33 360.82 372.09 364.36 372.09 364.36C372.09 364.36 371.59 368.9 372.85 368.9C374.11 368.9 375.6 374.71 374.35 374.97C373.1 375.23 367.35 380.02 369.35 381.03C371.35 382.04 369.35 384.31 369.35 386.59C369.35 388.25 372.41 390.71 374.07 391.92C373.77 393 373.46 394.15 373.17 395.28C372.31 398.62 371.64 401.84 371.85 403.01C372.35 405.79 370.6 413.62 371.1 416.15C371.6 418.68 373.36 424.23 372.1 426.51C370.84 428.79 372.35 436.36 372.35 436.36L374.61 457.83C374.61 457.83 373.11 463.9 374.61 465.41C376.11 466.92 377.37 484.62 378.87 486.64C380.37 488.66 382.64 499.27 380.87 502.81C379.1 506.35 383.13 513.67 383.13 513.67C383.13 513.67 382.88 522.26 382.88 524.53C382.88 526.8 385.13 530.34 385.13 530.34C385.13 530.34 387.39 542.47 387.13 545.5C386.87 548.53 388.63 552.83 388.63 552.83C388.63 552.83 390.14 561.67 389.89 563.69C389.64 565.71 391.89 568.49 391.89 568.49C391.89 568.49 394.65 575.06 393.89 577.84C393.13 580.62 395.64 583.4 395.64 583.4C395.64 583.4 395.39 589.46 395.39 590.22C395.39 590.98 400.66 597.04 400.66 597.04C400.66 597.04 398.4 601.59 399.66 603.36C400.92 605.13 400.66 611.44 402.66 613.47C404.66 615.5 404.16 623.82 406.66 625.34C409.16 626.86 411.42 628.12 411.92 631.4C412.42 634.68 414.43 639.49 416.69 640.25C417.119 640.545 417.491 640.914 417.79 641.34L416.79 645.59L413.7 658.44C413.7 658.44 410.7 677.13 410.94 679.91C411.18 682.69 407.94 685.47 407.94 685.47C407.94 685.47 405.18 701.64 404.68 703.66C404.18 705.68 404.93 709.47 404.93 709.47C404.93 709.47 403.18 719.07 404.43 719.58C405.68 720.09 410.95 725.39 410.95 725.39H411.36L410.82 727.29L402.17 757.99C402.17 757.99 394.17 771.38 412.71 778.2C413.33 779.4 413.9 779.43 413.23 779.2C413.84 779.72 426.23 790.2 427.23 795.11C428.23 800.02 436.76 805.21 439.77 805.72C442.78 806.23 462.84 822.39 470.11 806.48C477.38 790.57 457.32 780.2 457.32 780.2L442.05 770.37C442.05 770.37 434.28 759 433.05 756.98C431.82 754.96 429.54 745.1 431.05 743.59C431.82 742.81 434.23 735.89 436.41 729.31C436.61 728.68 436.82 728.06 437.02 727.44C441.28 728.44 446.1 726.44 446.1 726.44L457.27 708.82L459.27 705.73L459.63 706.45C459.63 706.45 468.91 707.21 473.42 707.97C474.853 708.028 476.286 707.849 477.66 707.44C477.83 707.81 478 708.19 478.16 708.57C479.255 710.912 480.183 713.328 480.94 715.8C481.69 719.08 482.45 730.7 482.45 730.7C482.45 730.7 477.45 747.38 476.18 750.41C474.91 753.44 477.43 778.71 502.26 768.6C502.26 768.6 505.26 763.8 508.02 763.8C510.78 763.8 517.55 756.98 515.02 749.65C512.49 742.32 502.02 719.84 509.26 707.97C515.1 698.41 514.63 685.59 506.78 679.63C506.45 679.38 506.1 679.16 505.78 678.94C505.865 677.668 505.865 676.392 505.78 675.12C504.02 650.87 492.78 649.6 492.78 649.6C492.78 649.6 486.26 648.09 485.51 645.6C485.07 644.14 479.42 636.6 474.74 630.47C474.9 630.21 475.05 629.95 475.2 629.69C475.2 629.6 475.3 629.51 475.34 629.42C475.56 629.01 475.77 628.59 475.97 628.15C479.61 619.97 478.67 608.07 478.48 605.94C478.23 603.16 478.48 599.62 478.48 595.58C478.48 591.54 482.48 585.47 481.99 583.2C481.5 580.93 486.76 571.58 486.76 569.3C486.76 567.02 490.45 553.37 490.45 553.37C490.45 553.37 497.72 537.7 499.23 533.15C500.67 528.79 526.35 449.31 528.43 442.87C528.469 442.727 528.515 442.587 528.57 442.45C528.57 442.45 536.77 415.62 531.28 398C530.924 396.837 530.493 395.698 529.99 394.59C531.67 393.78 532.83 393.19 532.83 393.19C532.83 393.19 529.57 383.59 531.07 380.05C532.57 376.51 531.57 369.69 531.57 369.69C531.57 369.69 525.57 366.15 525.31 364.64C525.05 363.13 522.55 361.1 523.31 359.08C524.07 357.06 528.31 358.08 527.82 353.52C527.33 348.96 522.06 344.17 522.56 341.39C523.06 338.61 525.06 333.56 522.56 330.53C520.06 327.5 519.05 322.7 518.8 318.91C518.73 317.91 518.95 314.96 519.3 311.07C521.973 312.733 524.734 314.252 527.57 315.62C527.57 315.62 538.35 317.14 538.86 316.13C539.824 314.843 540.916 313.657 542.12 312.59C555.66 309.31 549.64 284.59 549.64 284.59C549.64 284.59 549.44 282.78 549.12 279.8C549.46 279.714 549.78 279.561 550.06 279.35C551.21 278.51 551.49 276.91 552.19 275.65C552.986 274.459 553.919 273.365 554.97 272.39C557.45 269.69 558.92 266.24 560.34 262.85C561.24 260.69 562.16 258.53 563.07 256.36C563.98 254.19 565.07 251.6 567.07 250.03C569.37 248.18 572.49 247.82 575.42 247.55C575.302 245.306 574.464 243.16 573.03 241.43C573.911 241.16 574.841 241.092 575.751 241.231C576.662 241.369 577.529 241.711 578.29 242.23C578.331 242.162 578.367 242.092 578.4 242.02H578.46C578.627 241.773 578.708 241.478 578.69 241.18ZM364.56 310.37C364.62 309.87 364.71 309.37 364.82 308.87C365.31 308.41 365.9 307.87 366.53 307.37L370.03 307.71C369.17 308.41 368.42 309.05 367.81 309.57C366.73 309.02 365.55 309.56 364.56 310.37ZM371.56 303.44C372.055 303.404 372.543 303.3 373.01 303.13C373.68 303.13 374.37 303.13 375.07 303.13H376.07C374.4 304.3 372.71 305.6 371.21 306.81L371.56 303.52V303.44ZM377.33 252.44C377.33 252.44 377.1 259.62 377.61 266.84C376.83 267.39 376.02 267.99 375.22 268.62L376.99 251.97L377.33 252.44Z" fill="url(#paint0_linear)"/>
<path id="Vector_127" d="M507.94 762.74C505.19 762.74 502.19 767.49 502.19 767.49C477.44 777.49 474.94 752.49 476.19 749.49C477.44 746.49 482.44 729.99 482.44 729.99C482.44 729.99 481.69 718.49 480.94 715.24C480.182 712.796 479.256 710.407 478.17 708.09C476.49 704.26 474.69 700.49 474.69 700.49C474.69 700.49 485.44 673.99 499.69 676.49C502.23 676.915 504.631 677.944 506.69 679.49C514.52 685.39 514.99 698.08 509.16 707.49C501.91 719.24 512.41 741.49 514.91 748.74C517.41 755.99 510.69 762.74 507.94 762.74Z" fill="#FDC2CC"/>
<path id="Vector_128" d="M470.19 804.99C462.94 820.74 442.94 804.74 439.94 804.24C436.94 803.74 428.44 798.74 427.44 793.74C426.44 788.74 414.07 778.51 413.44 778C414.11 778.21 413.54 778.18 412.92 777C394.42 770.25 402.42 757 402.42 757L411.04 726.62L413.42 718.25L440.42 716.5C440.42 716.5 438.57 722.41 436.51 728.62C434.34 735.13 431.94 741.98 431.17 742.75C429.67 744.25 431.92 754 433.17 756C434.42 758 442.17 769.25 442.17 769.25L457.42 779C457.42 779 477.44 789.24 470.19 804.99Z" fill="#FDC2CC"/>
<path id="Vector_129" opacity="0.1" d="M440.44 716.49C440.44 716.49 438.59 722.4 436.53 728.61C435.12 728.205 433.867 727.378 432.94 726.24L411.19 726.74L411.06 726.61L413.44 718.24L440.44 716.49Z" fill="black"/>
<path id="Vector_130" d="M528.44 444.74C528.44 444.74 528.44 444.88 528.31 445.15C526.23 451.52 500.63 530.15 499.19 534.49C497.69 538.99 490.44 554.49 490.44 554.49C490.44 554.49 486.69 567.99 486.69 570.24C486.69 572.49 481.44 581.74 481.94 583.99C482.44 586.24 478.44 592.24 478.44 596.24C478.44 600.24 478.19 603.74 478.44 606.49C478.63 608.6 479.56 620.38 475.93 628.49C475.138 630.377 473.964 632.08 472.48 633.49C472.076 633.856 471.645 634.19 471.19 634.49C462.19 640.49 461.44 701.99 461.44 701.99L461.02 702.65L457.37 708.37L446.19 725.77C446.19 725.77 437.19 729.52 432.94 724.27L411.19 724.77C411.19 724.77 405.94 719.52 404.69 719.02C403.44 718.52 405.19 709.02 405.19 709.02C405.19 709.02 404.44 705.27 404.94 703.27C405.44 701.27 408.19 685.27 408.19 685.27C408.19 685.27 411.44 682.52 411.19 679.77C410.94 677.02 413.94 658.52 413.94 658.52L417.02 645.81L418.54 639.54L421.69 626.54L442.94 438.79L469.94 430.54L521.94 433.04L527.64 443.34L528.44 444.74Z" fill="#5F5D7E"/>
<path id="Vector_131" opacity="0.1" d="M455.19 536.99C454.94 541.74 453.69 548.99 454.19 553.24C454.69 557.49 456.44 573.49 455.69 576.49C454.94 579.49 458.44 582.99 459.69 584.49C460.94 585.99 460.19 590.49 460.44 593.99C460.69 597.49 463.94 600.74 463.94 600.74C463.94 600.74 460.19 608.74 462.94 609.99C465.69 611.24 471.44 622.74 471.44 622.74C471.44 622.74 473.37 625.17 475.93 628.47C474.951 630.879 473.307 632.96 471.19 634.47C462.19 640.47 461.44 701.97 461.44 701.97L461.02 702.63L455.44 691.47C455.44 691.47 422.19 641.22 419.94 640.47C419.398 640.258 418.917 639.914 418.54 639.47L421.69 626.47L442.94 438.72L469.94 430.47L521.94 432.97L494.56 435.72C494.56 435.72 482.39 444.45 482.31 444.72L460.44 453.97L456.44 513.97C456.44 513.97 455.44 532.24 455.19 536.99Z" fill="black"/>
<path id="Vector_132" opacity="0.1" d="M527.64 443.29C526.95 446.07 454.94 437.74 454.94 437.74L455.44 456.99L451.44 516.99C451.44 516.99 450.44 535.24 450.19 539.99C449.94 544.74 448.69 551.99 449.19 556.24C449.69 560.49 451.44 576.49 450.69 579.49C449.94 582.49 453.44 585.99 454.69 587.49C455.94 588.99 455.19 593.49 455.44 596.99C455.69 600.49 458.94 603.74 458.94 603.74C458.94 603.74 455.19 611.74 457.94 612.99C460.69 614.24 466.44 625.74 466.44 625.74C466.44 625.74 469.19 629.21 472.44 633.47C472.036 633.836 471.605 634.17 471.15 634.47C462.15 640.47 461.4 701.97 461.4 701.97L460.98 702.63L457.37 708.37L450.44 694.52C450.44 694.52 424.79 655.75 417.02 645.81L418.54 639.54L421.69 626.54L442.94 438.79L469.94 430.54L521.94 433.04L527.64 443.29Z" fill="black"/>
<path id="Vector_133" opacity="0.1" d="M506.72 679.45C505.72 697.35 486.86 706.11 478.17 708.09C476.49 704.26 474.69 700.49 474.69 700.49C474.69 700.49 485.44 673.99 499.69 676.49C502.237 676.899 504.648 677.914 506.72 679.45Z" fill="black"/>
<path id="Vector_134" d="M452.19 536.99C451.94 541.74 450.69 548.99 451.19 553.24C451.69 557.49 453.44 573.49 452.69 576.49C451.94 579.49 455.44 582.99 456.69 584.49C457.94 585.99 457.19 590.49 457.44 593.99C457.69 597.49 460.94 600.74 460.94 600.74C460.94 600.74 457.19 608.74 459.94 609.99C462.69 611.24 468.44 622.74 468.44 622.74C468.44 622.74 484.69 643.24 485.44 645.74C486.19 648.24 492.69 649.74 492.69 649.74C492.69 649.74 503.94 650.99 505.69 674.99C507.44 698.99 477.94 708.24 473.44 707.49C468.94 706.74 459.69 705.99 459.69 705.99L452.44 691.49C452.44 691.49 419.19 641.24 416.94 640.49C414.69 639.74 412.69 634.99 412.19 631.74C411.69 628.49 409.44 627.24 406.94 625.74C404.44 624.24 404.94 615.99 402.94 613.99C400.94 611.99 401.19 605.74 399.94 603.99C398.69 602.24 400.94 597.74 400.94 597.74C400.94 597.74 395.69 591.74 395.69 590.99C395.69 590.24 395.94 584.24 395.94 584.24C395.94 584.24 393.44 581.49 394.19 578.74C394.94 575.99 392.19 569.49 392.19 569.49C392.19 569.49 389.94 566.74 390.19 564.74C390.44 562.74 388.94 553.99 388.94 553.99C388.94 553.99 387.19 549.74 387.44 546.74C387.69 543.74 385.44 531.74 385.44 531.74C385.44 531.74 383.19 528.24 383.19 525.99C383.19 523.74 383.44 515.24 383.44 515.24C383.44 515.24 379.44 507.99 381.19 504.49C382.94 500.99 380.69 490.49 379.19 488.49C377.69 486.49 376.44 468.99 374.94 467.49C373.44 465.99 374.94 459.99 374.94 459.99L372.69 438.74C372.69 438.74 371.19 431.24 372.44 428.99C373.69 426.74 371.94 421.24 371.44 418.74C370.94 416.24 372.69 408.49 372.19 405.74C371.98 404.58 372.65 401.4 373.5 398.09C374.68 393.53 376.19 388.74 376.19 388.74C376.19 388.74 504.69 376.74 523.19 389.24C527.19 391.92 529.66 395.99 531.19 400.75C536.66 418.19 528.48 444.75 528.48 444.75L457.48 454L453.48 514C453.48 514 452.44 532.24 452.19 536.99Z" fill="#5F5D7E"/>
<path id="Vector_135" opacity="0.1" d="M431.69 625.99C431.69 625.99 453.94 619.24 459.19 623.74C464.44 628.24 431.69 625.99 431.69 625.99Z" fill="black"/>
<path id="Vector_136" opacity="0.1" d="M439.69 654.49C439.69 654.49 446.44 647.24 456.44 649.49C462.306 650.857 468.46 650.241 473.94 647.74L439.69 654.49Z" fill="black"/>
<path id="Vector_137" opacity="0.1" d="M463.19 662.74C463.19 662.74 481.44 660.24 482.19 662.49C482.94 664.74 463.19 662.74 463.19 662.74Z" fill="black"/>
<path id="Vector_138" opacity="0.1" d="M457.94 677.49C457.94 677.49 478.19 671.49 479.19 673.99C480.19 676.49 456.94 677.24 456.94 677.24L457.94 677.49Z" fill="black"/>
<path id="Vector_139" opacity="0.1" d="M480.69 542.74C480.69 542.74 461.69 559.49 464.44 561.24C467.19 562.99 480.69 542.74 480.69 542.74Z" fill="black"/>
<path id="Vector_140" opacity="0.1" d="M465.19 584.24C465.19 584.24 478.44 584.24 475.94 587.24C473.44 590.24 465.19 584.24 465.19 584.24Z" fill="black"/>
<path id="Vector_141" opacity="0.1" d="M473.19 595.99C473.19 595.99 467.94 600.49 469.19 601.49C470.44 602.49 473.19 595.99 473.19 595.99Z" fill="black"/>
<path id="Vector_142" opacity="0.1" d="M415.44 703.24C415.44 703.24 431.94 708.74 432.19 712.24C432.44 715.74 415.44 703.24 415.44 703.24Z" fill="black"/>
<path id="Vector_143" d="M495.44 180.49L490.19 211.74C490.19 211.74 444.69 235.74 443.94 235.74C443.19 235.74 410.69 230.24 409.44 230.24C408.19 230.24 386.94 165.99 401.94 161.99C406 160.91 411.89 158.31 418.32 155.08C435.66 146.41 456.94 133.24 456.94 133.24C456.94 133.24 488.69 129.74 480.94 151.74C477.94 160.37 479.48 166.65 482.51 171.1C487.27 178 495.44 180.49 495.44 180.49Z" fill="#FDC2CC"/>
<path id="Vector_144" opacity="0.1" d="M495.44 180.49L490.19 211.74C490.19 211.74 444.69 235.74 443.94 235.74C443.19 235.74 410.69 230.24 409.44 230.24C408.19 230.24 386.94 165.99 401.94 161.99C406 160.91 411.89 158.31 418.32 155.08C422.41 155.35 425.19 155.74 425.19 155.74C425.19 155.74 435.19 193.99 435.94 205.74C436.69 217.49 462.69 218.74 464.44 218.24C466.19 217.74 473.44 188.99 473.44 188.99C473.44 188.99 472.69 178.99 474.94 178.99C476.82 178.99 481.16 172.99 482.51 171.1C487.27 178 495.44 180.49 495.44 180.49Z" fill="black"/>
<path id="Vector_145" opacity="0.1" d="M531.15 400.75C527.67 402.45 519.35 406.33 517.15 405.75C514.4 405 507.65 405 507.65 405C507.65 405 503.65 409.5 499.4 408.5C495.15 407.5 478.4 408.25 478.4 408.25C478.4 408.25 448.4 409.5 442.65 407.5C436.9 405.5 416.4 403.75 416.4 403.75C416.4 403.75 388.4 400.5 383.65 398.5C382.311 397.916 380.839 397.7 379.389 397.876C377.938 398.052 376.561 398.612 375.4 399.5C375.4 399.5 374.53 398.93 373.46 398.1C374.64 393.54 376.15 388.75 376.15 388.75C376.15 388.75 504.65 376.75 523.15 389.25C527.15 391.92 529.66 395.99 531.15 400.75Z" fill="black"/>
<path id="Vector_146" d="M425.19 157.74C425.19 157.74 399.94 154.24 389.94 160.99C386.387 163.337 382.368 164.889 378.16 165.54C372.518 166.414 367.434 169.444 363.98 173.99C363.34 174.85 362.72 175.43 362.19 175.49C359.94 175.74 347.44 214.49 347.44 214.49L377.69 256.74C377.69 256.74 376.94 280.24 381.19 284.74C385.44 289.24 375.19 340.74 375.19 340.74C375.19 340.74 370.19 358.49 372.44 361.24C374.69 363.99 372.44 367.49 372.44 367.49C372.44 367.49 371.94 371.99 373.19 371.99C374.44 371.99 375.94 377.74 374.69 377.99C373.44 378.24 367.69 382.99 369.69 383.99C371.69 384.99 369.69 387.24 369.69 389.49C369.69 391.74 375.44 395.49 375.44 395.49C376.601 394.602 377.978 394.042 379.429 393.866C380.879 393.69 382.351 393.906 383.69 394.49C388.44 396.49 416.44 399.74 416.44 399.74C416.44 399.74 436.94 401.49 442.69 403.49C448.44 405.49 478.44 404.24 478.44 404.24C478.44 404.24 495.19 403.49 499.44 404.49C503.69 405.49 507.69 400.99 507.69 400.99C507.69 400.99 514.44 400.99 517.19 401.74C519.94 402.49 532.69 395.99 532.69 395.99C532.69 395.99 529.44 386.49 530.94 382.99C532.44 379.49 531.44 372.74 531.44 372.74C531.44 372.74 525.44 369.24 525.19 367.74C524.94 366.24 522.44 364.24 523.19 362.24C523.94 360.24 528.19 361.24 527.69 356.74C527.19 352.24 521.94 347.49 522.44 344.74C522.94 341.99 524.94 336.99 522.44 333.99C519.94 330.99 518.94 326.24 518.69 322.49C518.44 318.74 522.44 284.74 522.44 284.74L513.19 216.24L541.44 202.24C541.44 202.24 540.19 192.49 538.44 187.24C536.69 181.99 534.19 172.74 534.19 172.74C534.19 172.74 528.44 161.49 527.19 160.99C525.94 160.49 512.69 151.74 509.69 152.99C506.69 154.24 482.94 172.49 482.94 172.49C482.94 172.49 477.19 180.99 474.94 180.99C472.69 180.99 473.44 190.99 473.44 190.99C473.44 190.99 466.19 219.74 464.44 220.24C462.69 220.74 436.69 219.49 435.94 207.74C435.19 195.99 425.19 157.74 425.19 157.74Z" fill="#D39999"/>
<path id="Vector_147" d="M385.99 305.55C382.522 306.313 378.99 306.748 375.44 306.85C370.31 306.99 365.8 306.34 364.69 304.49C361.69 299.49 361.69 289.99 361.69 289.99C361.69 289.99 375.25 293.12 384.61 296.54L386.16 297.12C389.79 298.53 392.55 299.97 393.16 301.23C394.03 302.92 390.68 304.5 385.99 305.55Z" fill="#FDC2CC"/>
<path id="Vector_148" opacity="0.1" d="M484.19 166.49C509.457 166.49 529.94 146.007 529.94 120.74C529.94 95.473 509.457 74.99 484.19 74.99C458.923 74.99 438.44 95.473 438.44 120.74C438.44 146.007 458.923 166.49 484.19 166.49Z" fill="black"/>
<path id="Vector_149" d="M484.19 164.49C509.457 164.49 529.94 144.007 529.94 118.74C529.94 93.473 509.457 72.99 484.19 72.99C458.923 72.99 438.44 93.473 438.44 118.74C438.44 144.007 458.923 164.49 484.19 164.49Z" fill="#FDC2CC"/>
<path id="Vector_150" opacity="0.1" d="M382.94 365.74C382.94 365.74 395.94 365.74 400.94 366.99C405.94 368.24 416.44 368.49 416.44 368.49C416.44 368.49 387.44 367.49 382.94 365.74Z" fill="black"/>
<path id="Vector_151" opacity="0.1" d="M383.44 373.74C383.44 373.74 400.19 374.99 400.44 377.49C400.69 379.99 383.44 373.74 383.44 373.74Z" fill="black"/>
<path id="Vector_152" opacity="0.1" d="M510.94 342.99C510.94 342.99 521.19 346.74 520.94 347.99C520.69 349.24 511.94 345.99 510.94 342.99Z" fill="black"/>
<path id="Vector_153" d="M353.94 209.99L347.44 214.49C347.44 214.49 344.69 230.49 344.69 234.24C344.69 237.99 340.19 264.99 340.19 264.99C340.19 264.99 338.69 269.99 339.19 271.99C339.69 273.99 337.19 284.24 337.19 284.24C337.19 284.24 328.19 304.99 328.69 306.24C329.19 307.49 371.44 311.49 371.44 311.49L377.44 255.49L353.94 209.99Z" fill="#D39999"/>
<path id="Vector_154" d="M334.94 299.49L328.69 306.24C328.69 306.24 328.44 328.24 334.69 330.49C340.94 332.74 344.94 331.74 346.94 333.49C348.94 335.24 359.69 338.49 359.69 338.49C359.69 338.49 371.44 340.24 374.94 339.74C378.44 339.24 354.44 319.99 370.19 303.74L334.94 299.49Z" fill="#D39999"/>
<path id="Vector_155" d="M532.69 192.49L541.44 202.24C541.44 202.24 545.19 225.49 544.19 228.74C543.19 231.99 549.44 288.49 549.44 288.49C549.44 288.49 555.44 312.99 541.94 316.24C540.741 317.294 539.652 318.466 538.69 319.74C538.19 320.74 527.44 319.24 527.44 319.24L510.94 210.99L532.69 192.49Z" fill="#D39999"/>
<path id="Vector_156" opacity="0.1" d="M413.69 281.99C413.69 281.99 446.44 262.49 452.44 261.49C458.44 260.49 495.69 242.74 495.69 242.74C495.69 242.74 514.19 252.24 515.94 259.49C517.69 266.74 508.19 295.74 508.19 295.74C508.19 295.74 477.69 316.99 475.94 321.49C474.19 325.99 447.94 339.24 447.94 341.49C447.94 343.74 406.44 368.24 388.19 346.74C369.94 325.24 370.19 318.99 370.19 318.99L416.44 308.24L420.94 288.24L413.69 281.99Z" fill="black"/>
<path id="Vector_157" d="M413.69 279.99C413.69 279.99 446.44 260.49 452.44 259.49C458.44 258.49 495.69 240.74 495.69 240.74C495.69 240.74 514.19 250.24 515.94 257.49C517.69 264.74 508.19 293.74 508.19 293.74C508.19 293.74 477.69 314.99 475.94 319.49C474.19 323.99 447.94 337.24 447.94 339.49C447.94 341.74 406.44 366.24 388.19 344.74C369.94 323.24 370.19 316.99 370.19 316.99L416.44 306.24L420.94 286.24L413.69 279.99Z" fill="#C4C8E2"/>
<path id="Vector_158" d="M363.19 288.74L361.69 301.24L349.8 300.37L338.19 299.51C338.19 299.51 331.44 299.51 327.19 289.51C322.94 279.51 336.69 278.01 337.44 279.51C338.01 280.64 352.44 285.35 359.44 287.58L363.19 288.74Z" fill="#FDC2CC"/>
<path id="Vector_159" opacity="0.1" d="M363.19 288.74L361.69 301.24L349.8 300.37C351.74 297.49 355.8 292.22 359.45 287.58L363.19 288.74Z" fill="black"/>
<path id="Vector_160" opacity="0.1" d="M361.69 289.99C361.69 289.99 375.25 293.12 384.61 296.54C383.99 297.54 379.85 304.02 375.44 306.85C370.31 306.99 365.8 306.34 364.69 304.49C361.69 299.49 361.69 289.99 361.69 289.99Z" fill="black"/>
<path id="Vector_161" opacity="0.1" d="M385.99 305.55L385.77 303.82C385.77 303.82 385.67 303.45 385.58 302.89C385.4 301.75 385.27 299.83 386.11 298.66C386.6 297.97 386.49 297.48 386.17 297.13C389.8 298.54 392.56 299.98 393.17 301.24C394.03 302.92 390.68 304.5 385.99 305.55Z" fill="black"/>
<path id="Vector_162" d="M428.44 297.37C428.44 297.37 414.86 310.96 414.02 313.87C413.18 316.78 387.52 316.87 387.52 316.87L385.77 302.87C385.77 302.87 385.67 302.5 385.58 301.94C385.4 300.8 385.27 298.88 386.11 297.71C387.36 295.96 384.69 295.46 384.69 295.46C384.69 295.46 377.77 306.87 371.94 307.21C371.94 307.21 363.86 313.04 363.94 314.21C363.94 314.21 360.02 317.79 359.94 322.12C359.86 326.45 354.86 328.21 351.19 326.96C347.52 325.71 338.44 323.04 335.52 323.46C332.6 323.88 323.36 326.62 323.69 318.04C323.69 318.04 335.69 309.04 338.69 309.29C341.69 309.54 348.69 306.04 349.69 303.29C350.69 300.54 367.69 279.54 367.69 279.54C367.69 279.54 378.44 269.37 382.77 268.37C382.77 268.37 391.44 261.62 404.52 271.87C404.52 271.87 422.61 283.03 423.19 284.53C423.65 285.71 428.9 290.75 429.34 294.53C429.442 295.041 429.412 295.569 429.255 296.066C429.098 296.562 428.817 297.011 428.44 297.37Z" fill="#FDC2CC"/>
<path id="Vector_163" opacity="0.1" d="M386.02 277.49C386.02 277.49 387.35 285.16 386.69 287.91C386.03 290.66 384.69 295.41 384.69 295.41C384.69 295.41 392.77 282.74 386.02 277.49Z" fill="black"/>
<path id="Vector_164" opacity="0.1" d="M386.6 296.16C386.6 296.16 390.77 291.57 391.69 292.74C392.61 293.91 386.6 296.16 386.6 296.16Z" fill="black"/>
<path id="Vector_165" d="M557.32 249.37C557.32 255.732 555.247 261.92 551.414 266.998C547.581 272.076 542.198 275.766 536.08 277.51C533.521 278.246 530.872 278.623 528.21 278.63H528.06C524.219 278.629 520.416 277.871 516.867 276.4C513.319 274.928 510.095 272.773 507.38 270.056C504.665 267.339 502.511 264.114 501.043 260.564C499.574 257.015 498.819 253.211 498.82 249.37C498.815 247.653 498.969 245.939 499.28 244.25C500.42 237.854 503.661 232.021 508.49 227.674C513.319 223.327 519.459 220.714 525.94 220.25C526.64 220.19 527.35 220.16 528.06 220.16C535.812 220.157 543.249 223.232 548.735 228.709C554.222 234.187 557.309 241.618 557.32 249.37Z" fill="#F8BDC5"/>
<path id="Vector_166" d="M572.75 245.78C574.178 247.489 575.013 249.616 575.13 251.84C572.21 252.11 569.13 252.46 566.81 254.29C564.81 255.85 563.81 258.29 562.81 260.56C561.897 262.7 560.99 264.84 560.09 266.98C558.67 270.33 557.21 273.75 554.74 276.42C553.692 277.383 552.76 278.463 551.96 279.64C551.27 280.89 550.96 282.47 549.84 283.31C549.276 283.654 548.636 283.854 547.976 283.891C547.317 283.927 546.658 283.8 546.06 283.52C544.83 283.06 543.73 282.29 542.5 281.8C541.71 281.496 540.888 281.281 540.05 281.16C536.39 280.62 532.36 281.41 529.25 279.44C528.89 279.201 528.555 278.926 528.25 278.62C527.035 277.429 526.156 275.939 525.7 274.3C525.471 273.635 525.389 272.929 525.46 272.23C525.603 271.59 525.885 270.99 526.286 270.472C526.687 269.953 527.197 269.529 527.78 269.23C527.95 269.13 528.12 269.03 528.3 268.94C531.3 267.37 535.47 267 537.04 263.94C538.54 261.04 536.68 257.51 534.4 255.17C533.32 254.07 532.04 252.82 532.19 251.28C532.33 249.92 533.54 248.97 534.55 248.06C537.408 245.475 539.334 242.02 540.03 238.23C540.296 237.059 540.275 235.841 539.97 234.68C539.659 233.847 539.231 233.063 538.7 232.35L535.46 227.55C534.46 225.856 533.093 224.407 531.46 223.31C530.11 222.5 528.56 222.22 527.2 221.42C526.682 221.137 526.248 220.723 525.94 220.22C525.769 219.939 525.711 219.602 525.78 219.28C525.95 218.48 526.78 218.09 527.61 217.86C529.758 217.237 532.003 217.023 534.23 217.23C534.935 217.38 535.665 217.38 536.37 217.23C536.72 217.136 537.024 216.92 537.228 216.621C537.432 216.322 537.521 215.96 537.48 215.6C539.94 214.96 542.27 216.88 544.07 218.68C545.87 220.48 548.07 222.45 550.61 221.94C551.52 221.76 552.36 221.24 553.28 221.14C554.2 221.04 555.34 221.64 555.28 222.57C555.22 223.5 554.06 224.1 554.16 225C554.22 225.311 554.361 225.601 554.57 225.84C555.724 227.429 557.094 228.849 558.64 230.06C558.64 228.29 558.64 226.51 558.64 224.74C560.64 225.24 561.37 227.8 561.14 229.87C560.91 231.94 560.14 234.03 560.62 236.05C560.68 236.396 560.82 236.723 561.028 237.006C561.236 237.289 561.508 237.52 561.82 237.68C562.334 237.819 562.876 237.819 563.39 237.68C567.98 237.03 573.34 238.25 575.62 242.28L571.62 240.83L576.27 243.37C576.907 243.663 577.473 244.089 577.93 244.62C578.151 244.89 578.282 245.222 578.304 245.571C578.325 245.919 578.236 246.265 578.05 246.56C577.281 246.043 576.406 245.704 575.488 245.569C574.571 245.434 573.636 245.506 572.75 245.78Z" fill="#585268"/>
<g id="Group" opacity="0.1">
<path id="Vector_167" opacity="0.1" d="M563.94 237.45C564.454 237.589 564.996 237.589 565.51 237.45C565.96 237.39 566.41 237.35 566.87 237.32C565.869 237.257 564.865 237.287 563.87 237.41L563.94 237.45Z" fill="black"/>
<path id="Vector_168" opacity="0.1" d="M573.7 240.63L575.42 241.58L575.1 241.13L573.7 240.63Z" fill="black"/>
<path id="Vector_169" opacity="0.1" d="M560.8 229.83C560.8 228.67 560.8 227.5 560.8 226.33C560.627 225.894 560.357 225.504 560.01 225.189C559.664 224.873 559.25 224.641 558.8 224.51V228.03C559.428 228.671 560.096 229.272 560.8 229.83Z" fill="black"/>
<path id="Vector_170" opacity="0.1" d="M575.7 245.43C576.583 245.582 577.422 245.923 578.16 246.43C578.336 246.198 578.424 245.911 578.41 245.62C577.531 245.362 576.606 245.297 575.7 245.43Z" fill="black"/>
<path id="Vector_171" opacity="0.1" d="M548.27 283.37C547.04 282.91 545.94 282.14 544.71 281.65C543.92 281.346 543.098 281.131 542.26 281.01C538.6 280.47 534.57 281.26 531.46 279.29C531.1 279.051 530.765 278.776 530.46 278.47C529.245 277.279 528.366 275.789 527.91 274.15C527.681 273.485 527.599 272.779 527.67 272.08C527.813 271.44 528.095 270.84 528.496 270.322C528.897 269.803 529.407 269.379 529.99 269.08C530.16 268.98 530.33 268.88 530.51 268.79C533.56 267.22 537.68 266.85 539.25 263.79C540.75 260.89 538.89 257.36 536.61 255.02C535.53 253.92 534.25 252.67 534.4 251.13C534.54 249.77 535.75 248.82 536.76 247.91C539.618 245.325 541.544 241.87 542.24 238.08C542.506 236.909 542.485 235.691 542.18 234.53C541.869 233.697 541.441 232.913 540.91 232.2L537.67 227.4C536.67 225.706 535.303 224.257 533.67 223.16C532.32 222.35 530.77 222.07 529.41 221.27C528.893 220.987 528.458 220.573 528.15 220.07C527.979 219.789 527.921 219.452 527.99 219.13C528.16 218.33 529.04 217.94 529.82 217.71C531.125 217.344 532.467 217.123 533.82 217.05C531.797 216.931 529.769 217.154 527.82 217.71C527.04 217.94 526.16 218.33 525.99 219.13C525.921 219.452 525.979 219.789 526.15 220.07C526.458 220.573 526.893 220.987 527.41 221.27C528.77 222.07 530.32 222.35 531.67 223.16C533.303 224.257 534.67 225.706 535.67 227.4L538.91 232.2C539.441 232.913 539.869 233.697 540.18 234.53C540.485 235.691 540.506 236.909 540.24 238.08C539.544 241.87 537.618 245.325 534.76 247.91C533.76 248.82 532.54 249.77 532.4 251.13C532.25 252.67 533.53 253.92 534.61 255.02C536.89 257.36 538.75 260.89 537.25 263.79C535.68 266.84 531.56 267.21 528.51 268.79C528.33 268.88 528.16 268.98 527.99 269.08C527.407 269.379 526.897 269.803 526.496 270.322C526.095 270.84 525.813 271.44 525.67 272.08C525.599 272.779 525.681 273.485 525.91 274.15C526.366 275.789 527.245 277.279 528.46 278.47C528.765 278.776 529.1 279.051 529.46 279.29C532.57 281.29 536.6 280.47 540.26 281.01C541.098 281.131 541.92 281.346 542.71 281.65C543.94 282.14 545.04 282.91 546.27 283.37C547.163 283.737 548.148 283.82 549.09 283.61C548.811 283.55 548.537 283.47 548.27 283.37Z" fill="black"/>
<path id="Vector_172" opacity="0.1" d="M552.77 221.71C553.385 221.553 553.99 221.356 554.58 221.12C554.226 220.947 553.832 220.874 553.44 220.91C552.592 221.111 551.757 221.365 550.94 221.67C551.54 221.819 552.165 221.832 552.77 221.71Z" fill="black"/>
<path id="Vector_173" opacity="0.1" d="M536.39 217.05C537.099 217.184 537.828 217.167 538.53 217C538.878 216.907 539.181 216.692 539.384 216.395C539.588 216.098 539.679 215.738 539.64 215.38C538.984 215.211 538.296 215.211 537.64 215.38C537.681 215.74 537.592 216.102 537.388 216.401C537.184 216.7 536.88 216.916 536.53 217.01C536.461 217.031 536.391 217.048 536.32 217.06L536.39 217.05Z" fill="black"/>
</g>
<path id="Vector_174" d="M501.69 233.37C497.96 236.16 492.01 237.37 486.54 237.77C482.263 238.109 477.967 238.109 473.69 237.77L464.06 234.15C464.06 234.15 464.84 232.6 466.16 230.55C468.79 226.47 473.57 220.4 478.56 220.65C486.06 221.02 493.94 221.39 494.69 221.39C495.44 221.39 510.06 227.12 501.69 233.37Z" fill="#FDC2CC"/>
<path id="Vector_175" d="M477.33 33.2C470.21 33.07 462.86 32.99 456.33 35.73C443.2 41.16 437.01 55.67 429.07 67.37C422.485 77.0657 414.079 85.3899 404.32 91.88C399.72 94.88 394.38 98.18 393.27 103.58C392.09 109.29 396.17 114.58 398.27 119.99C402.72 131.5 398.27 144.25 395.64 156.31C394.41 162.102 393.617 167.979 393.27 173.89C392.984 176.627 393.163 179.393 393.8 182.07C395.8 189.13 403.36 194.23 403.42 201.57C403.42 206.57 399.9 211.29 400.93 216.15C402.26 222.36 409.8 224.6 416.05 225.67C417.546 226.081 419.132 226.032 420.6 225.53C421.6 225.05 422.42 224.13 423.44 223.62C426.91 221.9 430.76 225.53 434.64 225.46C439.51 225.37 442.25 219.62 442.37 214.75C442.49 209.88 441.19 204.75 442.94 200.25C445.27 194.25 451.94 191.4 457.57 188.25C463.8 184.76 469.73 179.72 471.57 172.83C472.72 168.57 472.2 164.06 471.74 159.68C471.04 152.96 470.49 146.21 470.11 139.47C469.11 122.27 483.4 107.94 500.57 109.28H500.89C505.89 109.69 511.79 110.17 515.32 106.53C516.72 105.08 517.61 103.08 519.32 102.08C522.66 100.18 527.25 102.89 530.61 101.02C533.24 99.55 533.8 96.02 533.39 93.02C532.98 90.02 531.93 87.02 532.49 84.08C533.29 79.91 537.08 76.93 538.49 72.92C540.11 68.35 538.36 63.24 535.84 59.1C527.77 45.79 511.34 35.37 495.94 33.97C489.75 33.37 483.54 33.3 477.33 33.2Z" fill="#865A61"/>
<path id="Vector_176" opacity="0.1" d="M466.16 230.52C472.1 231.74 479.33 234.45 486.54 237.76C482.263 238.099 477.967 238.099 473.69 237.76L464.06 234.14C464.06 234.14 464.84 232.57 466.16 230.52Z" fill="black"/>
<path id="Vector_177" opacity="0.1" d="M540.06 281.16C536.4 280.62 532.37 281.41 529.26 279.44C528.9 279.201 528.565 278.926 528.26 278.62H528.11C524.265 278.625 520.458 277.873 516.904 276.405C513.351 274.937 510.122 272.784 507.401 270.067C504.681 267.35 502.523 264.124 501.05 260.573C499.578 257.021 498.82 253.215 498.82 249.37C498.815 247.653 498.969 245.939 499.28 244.25C509.53 249.98 517.84 255.87 519.44 258.75C521.805 262.54 524.589 266.053 527.74 269.22C530.53 272.22 533.52 275.1 536.08 277.51C537.6 278.92 538.97 280.17 540.06 281.16Z" fill="black"/>
<path id="Vector_178" d="M541.69 284.49C541.69 284.49 523.44 268.74 518.44 259.74C513.44 250.74 443.19 212.49 452.19 241.49C461.19 270.49 492.19 273.24 492.19 273.24C492.19 273.24 502.19 284.49 503.19 289.99C504.19 295.49 507.69 303.49 507.69 303.49L524.44 310.99L532.19 309.24C532.19 309.24 550.44 299.24 541.69 284.49Z" fill="#FDC2CC"/>
<path id="Vector_179" opacity="0.1" d="M506.69 302.49C506.69 302.49 536.19 319.24 539.19 279.99L546.69 282.49L539.19 308.99L526.44 318.24C526.44 318.24 508.69 309.99 506.69 302.49Z" fill="black"/>
<path id="Vector_180" d="M507.69 303.49C507.69 303.49 537.19 320.24 540.19 280.99L547.69 283.49L540.19 309.99L527.44 319.24C527.44 319.24 509.69 310.99 507.69 303.49Z" fill="#D39999"/>
<path id="Vector_181" d="M533.74 104.59C534.08 101.08 535.51 97.77 536.26 94.32C536.999 90.9825 537.101 87.5353 536.56 84.16C536.257 81.722 535.349 79.3983 533.92 77.4C532.92 76.15 529.92 73.4 528.17 74.64C527.17 75.35 526.9 79.46 526.5 80.64C525.097 84.6033 523.216 88.3811 520.9 91.89C525.845 98.7141 528.809 106.772 529.464 115.174C530.119 123.576 528.441 131.996 524.613 139.504C520.785 147.012 514.958 153.317 507.774 157.722C500.589 162.128 492.328 164.463 483.9 164.47C482.81 164.47 481.73 164.42 480.66 164.34C479.66 166.08 478.75 167.84 477.83 169.6C476.743 171.387 476.01 173.366 475.67 175.43C475.587 177.403 475.889 179.373 476.56 181.23C478.422 187.339 480.993 193.209 484.22 198.72C485.345 200.431 486.268 202.266 486.97 204.19C487.54 206.04 487.64 208.02 488.38 209.8C490.04 213.8 494.38 215.8 498.38 217.47C500.77 218.47 503.27 219.47 505.85 219.26C506.092 219.278 506.335 219.246 506.563 219.164C506.791 219.083 507 218.955 507.176 218.789C507.352 218.622 507.492 218.42 507.585 218.197C507.679 217.973 507.725 217.732 507.72 217.49C507.859 216.442 507.75 215.376 507.403 214.378C507.055 213.379 506.479 212.476 505.72 211.74C509.112 212.803 512.673 213.227 516.22 212.99C516.537 213.056 516.867 213.03 517.17 212.914C517.473 212.798 517.736 212.597 517.928 212.336C518.12 212.074 518.232 211.763 518.252 211.439C518.272 211.116 518.198 210.793 518.04 210.51C517.119 206.738 515.714 203.101 513.86 199.69C512.04 196.33 509.72 192.42 511.38 188.99C512.33 186.99 514.33 185.87 516.15 184.68C522.3 180.68 527.75 174.16 527.27 166.83C527.01 162.83 524.99 159.02 524.87 154.99C524.56 145.16 535.14 138.13 536.74 128.42C538.01 120.48 532.97 112.62 533.74 104.59Z" fill="#865A61"/>
<g id="Group_2" opacity="0.1">
<path id="Vector_182" opacity="0.1" d="M402.88 197.57C402.82 190.23 395.27 185.13 393.26 178.07C392.951 176.957 392.759 175.814 392.69 174.66C392.467 177.144 392.66 179.649 393.26 182.07C395.1 188.52 401.54 193.34 402.69 199.73C402.818 199.017 402.882 198.294 402.88 197.57Z" fill="black"/>
<path id="Vector_183" opacity="0.1" d="M434.1 221.46C430.22 221.53 426.37 217.9 422.9 219.62C421.9 220.13 421.1 221.05 420.06 221.53C418.592 222.032 417.006 222.081 415.51 221.67C409.28 220.6 401.76 218.37 400.41 212.21C400.155 213.511 400.155 214.849 400.41 216.15C401.74 222.36 409.28 224.6 415.53 225.67C417.026 226.081 418.612 226.032 420.08 225.53C421.08 225.05 421.9 224.13 422.92 223.62C426.39 221.9 430.24 225.53 434.12 225.46C438.99 225.37 441.73 219.62 441.85 214.75C441.85 213.75 441.85 212.75 441.78 211.75C441.27 216.37 438.63 221.37 434.1 221.46Z" fill="black"/>
<path id="Vector_184" opacity="0.1" d="M471.05 168.82C469.19 175.71 463.26 180.75 457.05 184.24C451.42 187.4 444.75 190.24 442.42 196.24C441.562 198.831 441.269 201.576 441.56 204.29C441.647 202.905 441.936 201.541 442.42 200.24C444.75 194.24 451.42 191.39 457.05 188.24C463.28 184.75 469.21 179.71 471.05 172.82C471.685 170.204 471.897 167.503 471.68 164.82C471.602 166.171 471.391 167.511 471.05 168.82Z" fill="black"/>
<path id="Vector_185" opacity="0.1" d="M525.8 97.67C523.39 97.49 520.88 96.93 518.8 98.09C517.05 99.09 516.16 101.09 514.8 102.54C511.27 106.18 505.42 105.7 500.37 105.29H500.05C482.88 103.95 468.61 118.29 469.59 135.48C469.59 135.61 469.59 135.75 469.59 135.88C469.829 132.13 470.807 128.465 472.469 125.095C474.131 121.725 476.443 118.718 479.273 116.246C482.103 113.774 485.394 111.887 488.956 110.693C492.519 109.499 496.282 109.022 500.03 109.29H500.35C505.35 109.7 511.25 110.18 514.78 106.54C516.18 105.09 517.07 103.09 518.78 102.09C520.78 100.93 523.33 101.49 525.78 101.67C527.703 106.45 528.802 111.522 529.03 116.67C529.03 116.02 529.08 115.37 529.08 114.67C529.08 108.846 527.967 103.076 525.8 97.67Z" fill="black"/>
<path id="Vector_186" opacity="0.1" d="M399.6 128.81C399.9 124.462 399.276 120.1 397.77 116.01C396.19 111.92 393.48 107.91 392.77 103.74C391.68 109.39 395.71 114.62 397.77 120.01C398.839 122.829 399.456 125.799 399.6 128.81Z" fill="black"/>
<path id="Vector_187" opacity="0.1" d="M536.32 86.49C536.229 87.7788 536.042 89.059 535.76 90.32C535.01 93.77 533.58 97.08 533.24 100.59C533.12 101.84 533.12 103.1 533.24 104.35C533.62 100.93 534.99 97.69 535.73 94.35C536.309 91.7728 536.508 89.1247 536.32 86.49Z" fill="black"/>
<path id="Vector_188" opacity="0.1" d="M536.2 124.44C534.6 134.15 524.02 141.18 524.33 151.01C524.346 151.542 524.393 152.073 524.47 152.6C525.73 143.99 534.74 137.34 536.2 128.44C536.448 126.828 536.482 125.191 536.3 123.57C536.27 123.86 536.27 124.15 536.2 124.44Z" fill="black"/>
<path id="Vector_189" opacity="0.1" d="M538.02 68.9C537.076 71.0426 535.866 73.0584 534.42 74.9C534.835 75.7053 535.17 76.5494 535.42 77.42C536.475 76.0168 537.339 74.4801 537.99 72.85C538.617 70.9837 538.775 68.9918 538.45 67.05C538.362 67.6783 538.219 68.2975 538.02 68.9Z" fill="black"/>
<path id="Vector_190" opacity="0.1" d="M526.61 165.76C525.72 171.88 520.93 177.21 515.61 180.7C513.79 181.89 511.79 183.05 510.84 185.01C510.182 186.485 510.086 188.149 510.57 189.69C510.641 189.456 510.731 189.229 510.84 189.01C511.79 187.01 513.79 185.89 515.61 184.7C521.76 180.7 527.21 174.18 526.73 166.85C526.71 166.48 526.66 166.12 526.61 165.76Z" fill="black"/>
<path id="Vector_191" opacity="0.1" d="M506.61 214.84C506.239 215.123 505.786 215.278 505.32 215.28C502.74 215.5 500.24 214.49 497.85 213.49C493.85 211.83 489.49 209.81 487.85 205.82C487.11 204.04 487.01 202.06 486.44 200.21C485.738 198.286 484.815 196.451 483.69 194.74C480.463 189.229 477.892 183.359 476.03 177.25C475.74 176.327 475.499 175.389 475.31 174.44C475.24 174.77 475.18 175.11 475.14 175.44C475.057 177.413 475.359 179.383 476.03 181.24C477.892 187.349 480.463 193.219 483.69 198.73C484.815 200.441 485.738 202.276 486.44 204.2C487.01 206.05 487.11 208.03 487.85 209.81C489.51 213.81 493.85 215.81 497.85 217.48C500.24 218.48 502.74 219.48 505.32 219.27C505.562 219.288 505.805 219.256 506.033 219.174C506.261 219.093 506.47 218.965 506.646 218.799C506.823 218.632 506.962 218.43 507.055 218.207C507.149 217.983 507.195 217.742 507.19 217.5C507.322 216.49 507.219 215.464 506.89 214.5C506.818 214.63 506.723 214.745 506.61 214.84Z" fill="black"/>
<path id="Vector_192" opacity="0.1" d="M516.99 208.7C516.58 208.895 516.134 209.001 515.68 209.01C512.133 209.247 508.572 208.823 505.18 207.76C506.419 208.959 507.153 210.587 507.23 212.31C509.996 212.962 512.844 213.198 515.68 213.01C515.997 213.076 516.327 213.05 516.63 212.934C516.933 212.818 517.196 212.617 517.388 212.356C517.58 212.094 517.692 211.783 517.712 211.459C517.732 211.136 517.658 210.813 517.5 210.53C517.35 209.91 517.17 209.3 516.99 208.7Z" fill="black"/>
</g>
<path id="Vector_193" opacity="0.1" d="M377.44 230.74C377.44 230.74 376.44 251.24 379.44 252.74C382.44 254.24 377.44 230.74 377.44 230.74Z" fill="black"/>
<path id="Vector_194" opacity="0.1" d="M434.19 284.74C435.19 284.74 439.19 286.74 439.69 288.99C440.19 291.24 434.19 284.74 434.19 284.74Z" fill="black"/>
<path id="Vector_195" opacity="0.1" d="M431.69 287.99C432.69 287.99 436.69 289.99 437.19 292.24C437.69 294.49 431.69 287.99 431.69 287.99Z" fill="black"/>
<path id="Vector_196" opacity="0.1" d="M440.94 296.99C441.94 296.99 445.94 298.99 446.44 301.24C446.94 303.49 440.94 296.99 440.94 296.99Z" fill="black"/>
<path id="Vector_197" opacity="0.1" d="M428.44 297.37C428.44 297.37 414.86 310.96 414.02 313.87C413.18 316.78 387.52 316.87 387.52 316.87L385.77 302.87C385.77 302.87 385.67 302.5 385.58 301.94C392.67 300.12 415.66 291.63 429.34 294.64C429.422 295.134 429.384 295.64 429.227 296.116C429.07 296.592 428.8 297.022 428.44 297.37Z" fill="black"/>
<path id="Vector_198" d="M366.6 314.57C366.6 314.57 379.69 302.99 383.69 303.24C387.69 303.49 436.44 282.74 439.69 305.99C442.94 329.24 377.44 330.49 377.44 330.49L367.44 334.24C367.44 334.24 359.1 316.07 366.6 314.57Z" fill="#FDC2CC"/>
<path id="Vector_199" d="M362.77 316.24C362.77 316.24 368.77 307.91 370.6 318.07C372.43 328.23 375.19 340.74 375.19 340.74L361.77 334.07L362.77 316.24Z" fill="#D39999"/>
<path id="Vector_200" opacity="0.1" d="M791.95 799.27C830.61 799.27 861.95 794.462 861.95 788.53C861.95 782.598 830.61 777.79 791.95 777.79C753.29 777.79 721.95 782.598 721.95 788.53C721.95 794.462 753.29 799.27 791.95 799.27Z" fill="#FFDBF1"/>
</g>
<g id="flower2">
<path id="Vector_201" opacity="0.1" d="M918.38 671.36C943.117 671.36 963.17 668.284 963.17 664.49C963.17 660.696 943.117 657.62 918.38 657.62C893.643 657.62 873.59 660.696 873.59 664.49C873.59 668.284 893.643 671.36 918.38 671.36Z" fill="#FFDBF1"/>
<path id="Vector_202" d="M883.06 598.58C883.06 598.58 876.73 628.08 904.91 631.58L906.66 628.3C906.66 628.3 884.81 607.76 883.06 598.58Z" fill="#FFDBF1"/>
<path id="Vector_203" d="M915.62 628.07L909.07 629.46L908.41 629.61C908.41 629.61 890.93 615.41 891.15 583.72C893.493 588.39 896.289 592.818 899.5 596.94C906.43 606.1 914.27 618.37 915.62 628.07Z" fill="#FFDBF1"/>
<path id="Vector_204" d="M917.84 631.11C917.324 631.447 916.739 631.663 916.128 631.743C915.516 631.823 914.895 631.764 914.31 631.57C897.48 627.64 903.17 572.8 903.17 572.8C904.1 573.24 905.17 580.21 908.99 589.22C915.78 605.04 923.27 627.14 917.84 631.11Z" fill="#FFDBF1"/>
<path id="Vector_205" d="M955.16 598.58C955.16 598.58 956.26 628.08 928.07 631.58L926.32 628.3C926.32 628.3 953.42 607.76 955.16 598.58Z" fill="#FFDBF1"/>
<path id="Vector_206" d="M947.08 583.72C947.29 615.41 924.58 629.61 924.58 629.61L923.92 629.46L917.37 628.07C918.66 618.34 926.56 606.07 933.48 596.94C937.401 591.944 941.975 587.498 947.08 583.72Z" fill="#FFDBF1"/>
<path id="Vector_207" d="M923.82 628.24C922.807 629.472 921.524 630.454 920.07 631.11C919.631 631.312 919.172 631.467 918.7 631.57C914.55 632.57 913.11 629.57 913.35 624.48C913.74 615.48 919.42 599.78 924.52 588.06C928.19 579.62 934.19 573.22 935.08 572.8C935.06 572.8 934.81 615.5 923.82 628.24Z" fill="#FFDBF1"/>
<path id="Vector_208" d="M919.11 553.57C919.11 553.57 900.32 620.21 916.49 630.26C932.66 640.31 923.27 559.47 919.11 553.57Z" fill="#FFDBF1"/>
<path id="Vector_209" opacity="0.1" d="M883.06 598.58C883.06 598.58 876.73 628.08 904.91 631.58L906.66 628.3C906.66 628.3 884.81 607.76 883.06 598.58Z" fill="black"/>
<path id="Vector_210" opacity="0.1" d="M915.62 628.07L909.07 629.46L908.41 629.61C908.41 629.61 890.93 615.41 891.15 583.72C893.493 588.39 896.289 592.818 899.5 596.94C906.43 606.1 914.27 618.37 915.62 628.07Z" fill="black"/>
<path id="Vector_211" opacity="0.1" d="M917.84 631.11C917.324 631.447 916.739 631.663 916.128 631.743C915.516 631.823 914.895 631.764 914.31 631.57C897.48 627.64 903.17 572.8 903.17 572.8C904.1 573.24 905.17 580.21 908.99 589.22C915.78 605.04 923.27 627.14 917.84 631.11Z" fill="black"/>
<path id="Vector_212" opacity="0.1" d="M955.16 598.58C955.16 598.58 956.26 628.08 928.07 631.58L926.32 628.3C926.32 628.3 953.42 607.76 955.16 598.58Z" fill="black"/>
<path id="Vector_213" opacity="0.1" d="M947.08 583.72C947.29 615.41 924.58 629.61 924.58 629.61L923.92 629.46L917.37 628.07C918.66 618.34 926.56 606.07 933.48 596.94C937.401 591.944 941.975 587.498 947.08 583.72Z" fill="black"/>
<path id="Vector_214" opacity="0.1" d="M923.82 628.24C922.807 629.472 921.524 630.454 920.07 631.11C919.631 631.312 919.172 631.467 918.7 631.57C914.55 632.57 913.11 629.57 913.35 624.48C913.74 615.48 919.42 599.78 924.52 588.06C928.19 579.62 934.19 573.22 935.08 572.8C935.06 572.8 934.81 615.5 923.82 628.24Z" fill="black"/>
<path id="Vector_215" opacity="0.1" d="M919.11 553.57C919.11 553.57 900.32 620.21 916.49 630.26C932.66 640.31 923.27 559.47 919.11 553.57Z" fill="black"/>
<path id="Vector_216" d="M883.06 598.58C883.06 598.58 879.35 628.08 907.53 631.58L909.28 628.3C909.28 628.3 884.81 607.76 883.06 598.58Z" fill="#FFDBF1"/>
<path id="Vector_217" d="M918.27 628.07L911.72 629.46L911.06 629.61C911.06 629.61 890.96 615.41 891.18 583.72C891.18 583.72 896.33 589.24 902.18 596.94C909.06 606.1 916.93 618.37 918.27 628.07Z" fill="#FFDBF1"/>
<path id="Vector_218" opacity="0.1" d="M918.27 628.07L911.72 629.46C905.51 624.01 903.04 609.77 902.15 596.94C909.06 606.1 916.93 618.37 918.27 628.07Z" fill="black"/>
<path id="Vector_219" d="M920.46 631.11C919.944 631.447 919.359 631.663 918.748 631.743C918.136 631.823 917.515 631.764 916.93 631.57C900.1 627.64 903.17 572.8 903.17 572.8C904.1 573.24 907.74 580.21 911.61 589.22C918.4 605.04 925.86 627.14 920.46 631.11Z" fill="#FFDBF1"/>
<path id="Vector_220" d="M955.16 598.58C955.16 598.58 958.88 628.08 930.69 631.58L928.95 628.3C928.95 628.3 953.42 607.76 955.16 598.58Z" fill="#FFDBF1"/>
<path id="Vector_221" d="M947.08 583.72C947.29 615.41 927.2 629.61 927.2 629.61L926.54 629.46L919.99 628.07C921.29 618.34 929.18 606.07 936.1 596.94C941.93 589.24 947.08 583.72 947.08 583.72Z" fill="#FFDBF1"/>
<path id="Vector_222" opacity="0.1" d="M936.1 596.94C935.26 608.94 933.1 622.08 927.75 628.24C927.382 628.681 926.978 629.089 926.54 629.46L919.99 628.07C921.27 618.37 929.18 606.1 936.1 596.94Z" fill="black"/>
<path id="Vector_223" d="M926.44 628.24C925.429 629.474 924.145 630.456 922.69 631.11C922.247 631.311 921.785 631.465 921.31 631.57C917.17 632.57 915.72 629.57 915.96 624.48C916.35 615.48 922.03 599.78 927.13 588.06C930.8 579.62 934.13 573.22 935.07 572.8C935.06 572.8 937.44 615.5 926.44 628.24Z" fill="#FFDBF1"/>
<path id="Vector_224" opacity="0.1" d="M920.46 631.11C919.507 631.108 918.577 630.812 917.8 630.26C909.88 625.33 909.72 606.82 911.61 589.26C918.4 605.04 925.86 627.14 920.46 631.11Z" fill="black"/>
<path id="Vector_225" opacity="0.1" d="M926.44 628.24C925.53 630.24 924.3 631.24 922.69 631.11C921.881 631.006 921.107 630.715 920.43 630.26C918.375 628.845 916.813 626.824 915.96 624.48C916.35 615.48 922.03 599.78 927.13 588.06C928.94 604.37 929.54 621.57 926.44 628.24Z" fill="black"/>
<path id="Vector_226" d="M919.11 553.57C919.11 553.57 902.95 620.21 919.11 630.26C935.27 640.31 923.27 559.47 919.11 553.57Z" fill="#FFDBF1"/>
<path id="Vector_227" d="M950.14 626.99H882.85V638.13H893.11L893.37 639.44L897.48 661.07H936.6L940.71 639.44L940.96 638.13H950.14V626.99Z" fill="#4B4770"/>
<path id="Vector_228" opacity="0.1" d="M950.14 626.99H882.85V638.13H893.11L893.37 639.44L897.48 661.07H936.6L940.71 639.44L940.96 638.13H950.14V626.99Z" fill="black"/>
<path id="Vector_229" d="M944.46 633.54L943.34 639.44L939.22 661.07H900.1L895.99 639.44L894.86 633.54H944.46Z" fill="#4B4770"/>
<path id="Vector_230" opacity="0.1" d="M944.46 633.54L943.34 639.44H895.99L894.86 633.54H944.46Z" fill="black"/>
<path id="Vector_231" d="M952.76 626.99H885.47V638.13H952.76V626.99Z" fill="#4B4770"/>
</g>
<g id="flower1">
<path id="Vector_232" opacity="0.1" d="M70 689.28C108.66 689.28 140 684.471 140 678.54C140 672.608 108.66 667.8 70 667.8C31.3401 667.8 0 672.608 0 678.54C0 684.471 31.3401 689.28 70 689.28Z" fill="#FFDBF1"/>
<path id="Vector_233" d="M109.15 561.16C108.191 562.475 107.423 563.919 106.87 565.45C106.73 565.82 106.59 566.25 106.45 566.66C106.198 566.54 105.933 566.45 105.66 566.39C104.495 566.093 103.289 565.988 102.09 566.08C102.09 565.62 102.15 565.08 102.16 564.61C102.31 559.34 101.69 552 96.66 555.11C91.84 558.11 95.28 563.11 98.39 566.31C98.66 566.59 98.93 566.85 99.19 567.1C96.35 569.1 95.81 573.83 95.34 578.74C94.87 583.65 90.7 589.02 87.93 592.08C87.65 592.39 87.4 592.67 87.15 592.93C86.0379 592.04 84.7501 591.396 83.3714 591.039C81.9927 590.683 80.5541 590.621 79.15 590.86C79.04 590.43 78.92 589.98 78.78 589.5C76.49 581.37 71.85 567.37 65.91 564.37C66.16 564.06 66.42 563.74 66.69 563.37C69.21 560.07 72.05 555.17 67.86 553.92C63.67 552.67 63.29 558.17 63.52 562.29C63.52 562.8 63.6 563.29 63.64 563.75C62.8057 563.788 61.9879 563.995 61.2365 564.359C60.4851 564.724 59.816 565.238 59.27 565.87L58.62 565.1C55.22 561.1 48.99 554.74 47.1 559.55C45.35 564.02 50.83 569.84 54.69 573.21L54.93 573.42C52.34 583.94 63.65 592.51 69.74 596.25L70.53 596.74C62.13 606.63 56.94 625.19 56.94 625.19L80.47 629.39C80.47 629.39 96.06 615.93 94.06 603.3H94.22C109.81 600.17 113.35 583.55 110.93 573.69L111.2 573.57C114.038 572.409 116.526 570.531 118.42 568.12C122.77 562.05 113.63 555.21 109.15 561.16Z" fill="#FFDBF1"/>
<path id="Vector_234" opacity="0.1" d="M109.15 561.16C108.191 562.475 107.423 563.919 106.87 565.45C106.73 565.82 106.59 566.25 106.45 566.66C106.198 566.54 105.933 566.45 105.66 566.39C104.495 566.093 103.289 565.988 102.09 566.08C102.09 565.62 102.15 565.08 102.16 564.61C102.31 559.34 101.69 552 96.66 555.11C91.84 558.11 95.28 563.11 98.39 566.31C98.66 566.59 98.93 566.85 99.19 567.1C96.35 569.1 95.81 573.83 95.34 578.74C94.87 583.65 90.7 589.02 87.93 592.08C87.65 592.39 87.4 592.67 87.15 592.93C86.0379 592.04 84.7501 591.396 83.3714 591.039C81.9927 590.683 80.5541 590.621 79.15 590.86C79.04 590.43 78.92 589.98 78.78 589.5C76.49 581.37 71.85 567.37 65.91 564.37C66.16 564.06 66.42 563.74 66.69 563.37C69.21 560.07 72.05 555.17 67.86 553.92C63.67 552.67 63.29 558.17 63.52 562.29C63.52 562.8 63.6 563.29 63.64 563.75C62.8057 563.788 61.9879 563.995 61.2365 564.359C60.4851 564.724 59.816 565.238 59.27 565.87L58.62 565.1C55.22 561.1 48.99 554.74 47.1 559.55C45.35 564.02 50.83 569.84 54.69 573.21L54.93 573.42C52.34 583.94 63.65 592.51 69.74 596.25L70.53 596.74C62.13 606.63 56.94 625.19 56.94 625.19L80.47 629.39C80.47 629.39 96.06 615.93 94.06 603.3H94.22C109.81 600.17 113.35 583.55 110.93 573.69L111.2 573.57C114.038 572.409 116.526 570.531 118.42 568.12C122.77 562.05 113.63 555.21 109.15 561.16Z" fill="black"/>
<path id="Vector_235" d="M62.33 567.94L59.58 575.94C59.58 575.94 58.05 574.86 56.12 573.16C52.26 569.79 46.78 563.97 48.53 559.5C50.42 554.69 56.65 561.04 60.05 565.05C61.42 566.7 62.33 567.94 62.33 567.94Z" fill="#FFDBF1"/>
<path id="Vector_236" d="M68.13 563.37C67.2932 564.467 66.3986 565.518 65.45 566.52C65.2156 565.119 65.0521 563.707 64.96 562.29C64.73 558.17 65.17 552.7 69.3 553.92C73.43 555.14 70.65 560.05 68.13 563.37Z" fill="#FFDBF1"/>
<path id="Vector_237" d="M103.6 564.61C103.52 567.26 103.26 569.38 103.26 569.38C102.047 568.437 100.901 567.411 99.83 566.31C96.72 563.09 93.28 558.11 98.1 555.11C103.13 552 103.75 559.37 103.6 564.61Z" fill="#FFDBF1"/>
<path id="Vector_238" d="M119.85 568.09C117.956 570.501 115.468 572.379 112.63 573.54C111.844 573.887 111.035 574.181 110.21 574.42L106.97 569.87C107.313 568.367 107.761 566.89 108.31 565.45C108.863 563.919 109.631 562.475 110.59 561.16C115.07 555.21 124.21 562.05 119.85 568.09Z" fill="#FFDBF1"/>
<path id="Vector_239" opacity="0.1" d="M60.05 565.1C61.42 566.7 62.33 567.94 62.33 567.94L59.58 575.94C59.58 575.94 58.05 574.86 56.12 573.16C56.5488 570.582 57.6143 568.152 59.22 566.09C59.49 565.77 59.78 565.42 60.05 565.1Z" fill="black"/>
<path id="Vector_240" opacity="0.1" d="M68.13 563.37C67.2932 564.467 66.3986 565.518 65.45 566.52C65.2156 565.119 65.0521 563.707 64.96 562.29C66.1037 562.309 67.2125 562.687 68.13 563.37Z" fill="black"/>
<path id="Vector_241" d="M81.66 595.3L74.81 598.3C74.81 598.3 73.32 597.58 71.17 596.24C63.98 591.82 49.53 580.69 59.17 567.57C68.81 554.45 76.94 577.98 80.17 589.49C81.14 592.94 81.66 595.3 81.66 595.3Z" fill="#FFDBF1"/>
<path id="Vector_242" opacity="0.1" d="M99.83 566.31C100.826 565.286 102.173 564.679 103.6 564.61C103.52 567.26 103.26 569.38 103.26 569.38C102.047 568.437 100.901 567.411 99.83 566.31Z" fill="black"/>
<path id="Vector_243" opacity="0.1" d="M112.63 573.54C111.844 573.887 111.035 574.181 110.21 574.42L106.97 569.87C107.313 568.367 107.761 566.89 108.31 565.45C110.4 566.67 111.94 569.71 112.63 573.54Z" fill="black"/>
<path id="Vector_244" d="M95.65 603.27L94.5 603.47C71.57 606.95 86.94 594.58 86.94 594.58C86.94 594.58 87.94 593.58 89.37 592.08C92.14 589.02 96.3 583.68 96.78 578.74C97.5 571.31 98.33 564.34 107.1 566.39C115.71 568.37 117.36 598.92 95.65 603.27Z" fill="#FFDBF1"/>
<path id="Vector_245" d="M95.22 660.36H51.41V671.88H95.22V660.36Z" fill="#D4DFEC"/>
<path id="Vector_246" d="M101.69 622.91H44.45V663.11H101.69V622.91Z" fill="#D4DFEC"/>
<path id="Vector_247" opacity="0.1" d="M95.22 660.36H51.41V671.88H95.22V660.36Z" fill="black"/>
<path id="Vector_248" opacity="0.1" d="M101.69 622.91H44.45V663.11H101.69V622.91Z" fill="black"/>
<path id="Vector_249" d="M98.1 660.36H54.29V671.88H98.1V660.36Z" fill="#D4DFEC"/>
<path id="Vector_250" opacity="0.1" d="M80.17 589.5C81.17 592.94 81.66 595.3 81.66 595.3L74.81 598.3C74.81 598.3 73.32 597.58 71.17 596.24C73.85 592.86 76.87 590.29 80.17 589.5Z" fill="black"/>
<path id="Vector_251" opacity="0.1" d="M95.65 603.27L94.5 603.47C71.57 606.95 86.94 594.58 86.94 594.58C86.94 594.58 87.94 593.58 89.37 592.08C93.65 595.5 95.42 599.37 95.65 603.27Z" fill="black"/>
<path id="Vector_252" d="M58.37 625.19C58.37 625.19 71.21 579.19 89.22 593.39C107.23 607.59 81.9 629.39 81.9 629.39L58.37 625.19Z" fill="#FFDBF1"/>
<path id="Vector_253" opacity="0.1" d="M64.85 576.23C65.6453 576.23 66.29 575.585 66.29 574.79C66.29 573.995 65.6453 573.35 64.85 573.35C64.0547 573.35 63.41 573.995 63.41 574.79C63.41 575.585 64.0547 576.23 64.85 576.23Z" fill="black"/>
<path id="Vector_254" opacity="0.1" d="M64.73 582.95C65.5253 582.95 66.17 582.305 66.17 581.51C66.17 580.715 65.5253 580.07 64.73 580.07C63.9347 580.07 63.29 580.715 63.29 581.51C63.29 582.305 63.9347 582.95 64.73 582.95Z" fill="black"/>
<path id="Vector_255" opacity="0.1" d="M106.5 577.55C107.295 577.55 107.94 576.905 107.94 576.11C107.94 575.315 107.295 574.67 106.5 574.67C105.705 574.67 105.06 575.315 105.06 576.11C105.06 576.905 105.705 577.55 106.5 577.55Z" fill="black"/>
<path id="Vector_256" opacity="0.1" d="M72.89 611.99C73.6853 611.99 74.33 611.345 74.33 610.55C74.33 609.755 73.6853 609.11 72.89 609.11C72.0947 609.11 71.45 609.755 71.45 610.55C71.45 611.345 72.0947 611.99 72.89 611.99Z" fill="black"/>
<path id="Vector_257" opacity="0.1" d="M103.5 588.71C104.295 588.71 104.94 588.065 104.94 587.27C104.94 586.475 104.295 585.83 103.5 585.83C102.705 585.83 102.06 586.475 102.06 587.27C102.06 588.065 102.705 588.71 103.5 588.71Z" fill="black"/>
<path id="Vector_258" opacity="0.1" d="M88.62 603.59C89.4153 603.59 90.06 602.945 90.06 602.15C90.06 601.355 89.4153 600.71 88.62 600.71C87.8247 600.71 87.18 601.355 87.18 602.15C87.18 602.945 87.8247 603.59 88.62 603.59Z" fill="black"/>
<path id="Vector_259" opacity="0.1" d="M69.77 579.11C70.5653 579.11 71.21 578.465 71.21 577.67C71.21 576.875 70.5653 576.23 69.77 576.23C68.9747 576.23 68.33 576.875 68.33 577.67C68.33 578.465 68.9747 579.11 69.77 579.11Z" fill="black"/>
<path id="Vector_260" opacity="0.1" d="M102.54 581.87C103.335 581.87 103.98 581.225 103.98 580.43C103.98 579.635 103.335 578.99 102.54 578.99C101.745 578.99 101.1 579.635 101.1 580.43C101.1 581.225 101.745 581.87 102.54 581.87Z" fill="black"/>
<path id="Vector_261" opacity="0.1" d="M97.62 593.03C98.4153 593.03 99.06 592.385 99.06 591.59C99.06 590.795 98.4153 590.15 97.62 590.15C96.8247 590.15 96.18 590.795 96.18 591.59C96.18 592.385 96.8247 593.03 97.62 593.03Z" fill="black"/>
<path id="Vector_262" opacity="0.1" d="M82.5 610.91C83.2953 610.91 83.94 610.265 83.94 609.47C83.94 608.675 83.2953 608.03 82.5 608.03C81.7047 608.03 81.06 608.675 81.06 609.47C81.06 610.265 81.7047 610.91 82.5 610.91Z" fill="black"/>
<path id="Vector_263" opacity="0.1" d="M79.38 603.83C80.1753 603.83 80.82 603.185 80.82 602.39C80.82 601.595 80.1753 600.95 79.38 600.95C78.5847 600.95 77.94 601.595 77.94 602.39C77.94 603.185 78.5847 603.83 79.38 603.83Z" fill="black"/>
<path id="Vector_264" opacity="0.1" d="M71.93 587.87C72.7253 587.87 73.37 587.225 73.37 586.43C73.37 585.635 72.7253 584.99 71.93 584.99C71.1347 584.99 70.49 585.635 70.49 586.43C70.49 587.225 71.1347 587.87 71.93 587.87Z" fill="black"/>
<path id="Vector_265" opacity="0.1" d="M98.1 660.36H54.29V664.57H98.1V660.36Z" fill="black"/>
<path id="Vector_266" d="M104.57 622.91H47.33V663.11H104.57V622.91Z" fill="#D4DFEC"/>
<path id="Vector_267" opacity="0.1" d="M84.42 617.39C85.2153 617.39 85.86 616.745 85.86 615.95C85.86 615.155 85.2153 614.51 84.42 614.51C83.6247 614.51 82.98 615.155 82.98 615.95C82.98 616.745 83.6247 617.39 84.42 617.39Z" fill="black"/>
<path id="Vector_268" opacity="0.1" d="M75.78 619.19C76.5753 619.19 77.22 618.545 77.22 617.75C77.22 616.955 76.5753 616.31 75.78 616.31C74.9847 616.31 74.34 616.955 74.34 617.75C74.34 618.545 74.9847 619.19 75.78 619.19Z" fill="black"/>
</g>
</g>
<defs>
<linearGradient id="paint0_linear" x1="450.94" y1="813.49" x2="450.94" y2="26.49" gradientUnits="userSpaceOnUse">
<stop stop-color="#808080" stop-opacity="0.25"/>
<stop offset="0.54" stop-color="#808080" stop-opacity="0.12"/>
<stop offset="1" stop-color="#808080" stop-opacity="0.1"/>
</linearGradient>
</defs>
</svg>
